<svg width="2000px" height="1733px"
 viewBox="0.00 0.00 607.35 525.89" xmlns="http://www.w3.org/2000/svg" xmlns:xlink="http://www.w3.org/1999/xlink">
<g id="graph0" class="graph" transform="scale(1.0 1.0) rotate(0) translate(4 521.89)">
<title>ContextMapGraph</title>
<polygon fill="white" stroke="transparent" points="-4,4 -4,-521.89 603.35,-521.89 603.35,4 -4,4"/>
<!-- GestionAlquileres -->
<g id="node1" class="node">
<title>GestionAlquileres</title>
<polygon fill="none" stroke="black" stroke-width="2" points="578.33,-317.52 579.86,-320.34 581.01,-323.16 581.79,-325.97 582.2,-328.76 582.22,-331.52 581.85,-334.24 581.1,-336.91 579.96,-339.51 578.44,-342.04 576.53,-344.49 574.24,-346.85 571.58,-349.12 568.55,-351.28 565.17,-353.33 561.43,-355.27 557.35,-357.09 552.95,-358.78 548.23,-360.34 543.21,-361.78 537.91,-363.08 532.34,-364.25 526.52,-365.28 520.46,-366.18 514.19,-366.94 507.73,-367.57 501.09,-368.07 494.3,-368.44 487.38,-368.69 480.35,-368.81 473.24,-368.82 466.06,-368.71 458.84,-368.48 451.61,-368.16 444.37,-367.72 437.17,-367.19 430.01,-366.57 422.93,-365.86 415.94,-365.06 409.06,-364.19 402.31,-363.23 395.72,-362.21 389.31,-361.12 383.08,-359.97 377.06,-358.75 371.27,-357.48 365.72,-356.16 360.42,-354.78 355.39,-353.36 350.64,-351.89 346.19,-350.38 342.04,-348.82 338.2,-347.23 334.68,-345.59 331.49,-343.92 328.63,-342.21 326.11,-340.47 323.94,-338.7 322.11,-336.89 320.63,-335.05 319.49,-333.18 318.71,-331.28 318.27,-329.35 318.18,-327.39 318.43,-325.42 319.02,-323.42 319.95,-321.4 321.21,-319.36 322.79,-317.31 324.69,-315.25 326.91,-313.18 329.43,-311.1 332.25,-309.03 335.35,-306.97 338.74,-304.92 342.4,-302.88 346.32,-300.87 350.49,-298.89 354.9,-296.94 359.54,-295.04 364.4,-293.19 369.46,-291.39 374.72,-289.66 380.17,-288 385.78,-286.43 391.55,-284.94 397.47,-283.54 403.52,-282.25 409.69,-281.07 415.96,-280.01 422.32,-279.07 428.76,-278.27 435.26,-277.6 441.81,-277.07 448.39,-276.69 454.98,-276.46 461.57,-276.38 468.15,-276.47 474.7,-276.71 481.2,-277.12 487.64,-277.69 493.99,-278.42 500.25,-279.32 506.4,-280.37 512.42,-281.59 518.29,-282.96 524,-284.48 529.53,-286.14 534.87,-287.95 539.99,-289.88 544.89,-291.95 549.55,-294.13 553.95,-296.43 558.08,-298.82 561.92,-301.3 565.47,-303.87 568.71,-306.5 571.62,-309.2 574.21,-311.94 576.45,-314.72 578.33,-317.52"/>
<text text-anchor="middle" x="448.35" y="-320.85" font-family="sans-serif" font-size="16.00">GestionAlquileres</text>
</g>
<!-- Seguridad -->
<g id="node2" class="node">
<title>Seguridad</title>
<polygon fill="none" stroke="black" stroke-width="2" points="173.33,-87.81 167.42,-87.82 161.55,-87.71 155.74,-87.48 150.02,-87.13 144.4,-86.65 138.92,-86.06 133.59,-85.35 128.44,-84.52 123.47,-83.58 118.72,-82.53 114.19,-81.37 109.9,-80.11 105.87,-78.74 102.1,-77.27 98.61,-75.71 95.4,-74.05 92.48,-72.32 89.87,-70.5 87.55,-68.6 85.54,-66.64 83.83,-64.61 82.42,-62.52 81.32,-60.37 80.52,-58.19 80,-55.96 79.78,-53.69 79.83,-51.4 80.16,-49.09 80.74,-46.76 81.58,-44.43 82.66,-42.09 83.98,-39.76 85.51,-37.45 87.25,-35.15 89.18,-32.88 91.3,-30.64 93.6,-28.44 96.05,-26.28 98.65,-24.18 101.39,-22.13 104.26,-20.15 107.24,-18.24 110.33,-16.39 113.51,-14.63 116.79,-12.95 120.14,-11.36 123.57,-9.86 127.06,-8.46 130.62,-7.16 134.22,-5.96 137.88,-4.87 141.58,-3.89 145.32,-3.02 149.1,-2.26 152.91,-1.62 156.75,-1.1 160.62,-0.69 164.52,-0.41 168.44,-0.24 172.38,-0.2 176.33,-0.27 180.3,-0.46 184.29,-0.77 188.28,-1.2 192.27,-1.74 196.27,-2.39 200.26,-3.16 204.24,-4.04 208.21,-5.02 212.15,-6.11 216.06,-7.29 219.94,-8.58 223.76,-9.95 227.53,-11.42 231.23,-12.98 234.85,-14.61 238.39,-16.32 241.82,-18.11 245.13,-19.96 248.32,-21.88 251.36,-23.85 254.25,-25.88 256.97,-27.95 259.51,-30.06 261.85,-32.22 263.97,-34.4 265.88,-36.61 267.54,-38.84 268.95,-41.08 270.1,-43.33 270.97,-45.58 271.56,-47.83 271.85,-50.07 271.84,-52.29 271.52,-54.49 270.89,-56.67 269.93,-58.81 268.66,-60.92 267.05,-62.98 265.13,-64.99 262.88,-66.95 260.31,-68.85 257.43,-70.68 254.25,-72.44 250.76,-74.13 246.99,-75.74 242.95,-77.26 238.64,-78.7 234.09,-80.04 229.31,-81.29 224.31,-82.44 219.13,-83.48 213.77,-84.42 208.26,-85.25 202.62,-85.97 196.88,-86.57 191.06,-87.06 185.17,-87.43 179.26,-87.68 173.33,-87.81"/>
<text text-anchor="middle" x="174.35" y="-40.14" font-family="sans-serif" font-size="16.00">Seguridad</text>
</g>
<!-- GestionAlquileres&#45;&gt;Seguridad -->
<g id="edge1" class="edge">
<title>GestionAlquileres&#45;&gt;Seguridad</title>
<path fill="none" stroke="black" stroke-width="2" d="M433.96,-277.43C416.54,-228.54 382.7,-152.2 329.35,-105.88 310.13,-89.2 285.81,-76.79 262.17,-67.68"/>
<text text-anchor="middle" x="488.85" y="-178.97" font-family="sans-serif" font-size="12.00"> &#160;&#160;&#160;&#160;&#160;&#160;&#160;&#160;&#160;&#160;&#160;&#160;&#160;&#160;&#160;&#160;&#160;&#160;&#160;&#160;&#160;&#160;&#160;&#160;&#160;&#160;&#160;&#160;&#160;&#160;&#160;&#160;&#160;&#160;&#160;&#160;&#160;&#160;&#160;</text>
<polygon fill="white" stroke="transparent" points="239.17,-57.68 239.17,-76.68 255.17,-76.68 255.17,-57.68 239.17,-57.68"/>
<polyline fill="none" stroke="black" points="255.17,-57.68 255.17,-76.68 "/>
<text text-anchor="start" x="242.17" y="-64.08" font-family="sans-serif" font-size="12.00">D</text>
<polygon fill="white" stroke="transparent" points="255.17,-57.68 255.17,-76.68 285.17,-76.68 285.17,-57.68 255.17,-57.68"/>
<polygon fill="none" stroke="black" points="255.17,-57.68 255.17,-76.68 285.17,-76.68 285.17,-57.68 255.17,-57.68"/>
<text text-anchor="start" x="258.17" y="-64.08" font-family="sans-serif" font-size="12.00">ACL</text>
<polygon fill="white" stroke="transparent" points="426.96,-268.43 426.96,-285.43 440.96,-285.43 440.96,-268.43 426.96,-268.43"/>
<text text-anchor="start" x="428.96" y="-273.83" font-family="sans-serif" font-size="12.00">U</text>
</g>
<!-- GestionPagos -->
<g id="node3" class="node">
<title>GestionPagos</title>
<polygon fill="none" stroke="black" stroke-width="2" points="147.43,-139.33 154.27,-138.57 161.15,-137.94 168.03,-137.43 174.89,-137.05 181.7,-136.81 188.43,-136.69 195.06,-136.71 201.56,-136.86 207.92,-137.14 214.1,-137.57 220.1,-138.12 225.88,-138.81 231.43,-139.63 236.74,-140.58 241.79,-141.66 246.56,-142.86 251.05,-144.18 255.25,-145.62 259.15,-147.16 262.74,-148.82 266.02,-150.58 268.99,-152.43 271.64,-154.37 273.97,-156.39 276,-158.5 277.71,-160.67 279.11,-162.9 280.22,-165.19 281.03,-167.52 281.55,-169.89 281.79,-172.3 281.76,-174.73 281.47,-177.17 280.92,-179.62 280.13,-182.07 279.11,-184.51 277.86,-186.94 276.4,-189.34 274.73,-191.71 272.87,-194.05 270.82,-196.34 268.59,-198.57 266.18,-200.75 263.62,-202.86 260.9,-204.91 258.03,-206.88 255.02,-208.77 251.87,-210.57 248.58,-212.28 245.17,-213.9 241.63,-215.42 237.97,-216.84 234.19,-218.16 230.3,-219.37 226.29,-220.47 222.17,-221.47 217.95,-222.35 213.61,-223.12 209.18,-223.77 204.64,-224.32 200.01,-224.75 195.29,-225.06 190.47,-225.26 185.57,-225.35 180.59,-225.33 175.54,-225.2 170.43,-224.96 165.25,-224.61 160.03,-224.15 154.76,-223.6 149.47,-222.94 144.16,-222.18 138.84,-221.32 133.53,-220.37 128.25,-219.33 123,-218.2 117.81,-216.98 112.69,-215.68 107.66,-214.3 102.74,-212.84 97.95,-211.31 93.3,-209.71 88.82,-208.04 84.53,-206.3 80.44,-204.51 76.58,-202.65 72.96,-200.75 69.61,-198.79 66.54,-196.8 63.76,-194.75 61.31,-192.68 59.19,-190.57 57.42,-188.43 56,-186.27 54.96,-184.09 54.3,-181.9 54.04,-179.69 54.17,-177.49 54.71,-175.28 55.65,-173.08 57.01,-170.9 58.77,-168.73 60.93,-166.59 63.49,-164.47 66.45,-162.4 69.79,-160.36 73.5,-158.37 77.57,-156.43 81.99,-154.55 86.73,-152.73 91.78,-150.99 97.12,-149.32 102.73,-147.73 108.59,-146.23 114.66,-144.82 120.93,-143.51 127.37,-142.3 133.95,-141.2 140.65,-140.21 147.43,-139.33"/>
<text text-anchor="middle" x="174.35" y="-178.27" font-family="sans-serif" font-size="16.00">GestionPagos</text>
</g>
<!-- GestionAlquileres&#45;&gt;GestionPagos -->
<g id="edge2" class="edge">
<title>GestionAlquileres&#45;&gt;GestionPagos</title>
<path fill="none" stroke="black" stroke-width="2" d="M359.29,-294.97C314.2,-280.12 266.95,-263.93 257.35,-258.27 241.27,-248.78 225.58,-235.84 212.24,-223.36"/>
<text text-anchor="middle" x="332.85" y="-248.67" font-family="sans-serif" font-size="12.00"> &#160;&#160;&#160;&#160;&#160;&#160;&#160;&#160;&#160;&#160;&#160;&#160;&#160;&#160;&#160;&#160;&#160;&#160;&#160;&#160;&#160;&#160;&#160;&#160;&#160;&#160;&#160;&#160;&#160;&#160;&#160;&#160;&#160;&#160;&#160;&#160;&#160;&#160;&#160;</text>
<polygon fill="white" stroke="transparent" points="189.24,-213.36 189.24,-232.36 205.24,-232.36 205.24,-213.36 189.24,-213.36"/>
<polyline fill="none" stroke="black" points="205.24,-213.36 205.24,-232.36 "/>
<text text-anchor="start" x="192.24" y="-219.76" font-family="sans-serif" font-size="12.00">D</text>
<polygon fill="white" stroke="transparent" points="205.24,-213.36 205.24,-232.36 235.24,-232.36 235.24,-213.36 205.24,-213.36"/>
<polygon fill="none" stroke="black" points="205.24,-213.36 205.24,-232.36 235.24,-232.36 235.24,-213.36 205.24,-213.36"/>
<text text-anchor="start" x="208.24" y="-219.76" font-family="sans-serif" font-size="12.00">ACL</text>
<polygon fill="white" stroke="transparent" points="352.29,-285.97 352.29,-302.97 366.29,-302.97 366.29,-285.97 352.29,-285.97"/>
<text text-anchor="start" x="354.29" y="-291.37" font-family="sans-serif" font-size="12.00">U</text>
</g>
<!-- GestionPagos&#45;&gt;Seguridad -->
<g id="edge3" class="edge">
<title>GestionPagos&#45;&gt;Seguridad</title>
<path fill="none" stroke="black" stroke-width="2" d="M174.35,-136.88C174.35,-121.19 174.35,-103.57 174.35,-87.99"/>
<text text-anchor="middle" x="249.85" y="-109.28" font-family="sans-serif" font-size="12.00"> &#160;&#160;&#160;&#160;&#160;&#160;&#160;&#160;&#160;&#160;&#160;&#160;&#160;&#160;&#160;&#160;&#160;&#160;&#160;&#160;&#160;&#160;&#160;&#160;&#160;&#160;&#160;&#160;&#160;&#160;&#160;&#160;&#160;&#160;&#160;&#160;&#160;&#160;&#160;</text>
<polygon fill="white" stroke="transparent" points="151.35,-77.99 151.35,-96.99 167.35,-96.99 167.35,-77.99 151.35,-77.99"/>
<polyline fill="none" stroke="black" points="167.35,-77.99 167.35,-96.99 "/>
<text text-anchor="start" x="154.35" y="-84.39" font-family="sans-serif" font-size="12.00">D</text>
<polygon fill="white" stroke="transparent" points="167.35,-77.99 167.35,-96.99 197.35,-96.99 197.35,-77.99 167.35,-77.99"/>
<polygon fill="none" stroke="black" points="167.35,-77.99 167.35,-96.99 197.35,-96.99 197.35,-77.99 167.35,-77.99"/>
<text text-anchor="start" x="170.35" y="-84.39" font-family="sans-serif" font-size="12.00">ACL</text>
<polygon fill="white" stroke="transparent" points="167.35,-127.88 167.35,-144.88 181.35,-144.88 181.35,-127.88 167.35,-127.88"/>
<text text-anchor="start" x="169.35" y="-133.28" font-family="sans-serif" font-size="12.00">U</text>
</g>
<!-- GestionClientes -->
<g id="node4" class="node">
<title>GestionClientes</title>
<polygon fill="none" stroke="black" stroke-width="2" points="261.99,-481.79 259.97,-484.56 257.64,-487.28 255.01,-489.94 252.08,-492.53 248.88,-495.04 245.4,-497.45 241.66,-499.76 237.67,-501.97 233.44,-504.05 228.99,-506 224.32,-507.82 219.46,-509.5 214.41,-511.04 209.19,-512.42 203.81,-513.66 198.29,-514.73 192.65,-515.65 186.89,-516.4 181.03,-517 175.09,-517.43 169.09,-517.7 163.03,-517.82 156.93,-517.78 150.82,-517.59 144.69,-517.26 138.58,-516.78 132.49,-516.16 126.43,-515.41 120.43,-514.53 114.5,-513.53 108.65,-512.42 102.89,-511.21 97.24,-509.89 91.72,-508.48 86.34,-506.99 81.1,-505.41 76.03,-503.77 71.13,-502.06 66.42,-500.3 61.91,-498.49 57.62,-496.63 53.54,-494.74 49.7,-492.82 46.1,-490.87 42.76,-488.9 39.68,-486.92 36.87,-484.92 34.35,-482.92 32.11,-480.92 30.16,-478.92 28.52,-476.93 27.18,-474.94 26.16,-472.96 25.45,-471 25.07,-469.05 25,-467.11 25.26,-465.2 25.85,-463.3 26.77,-461.42 28.01,-459.56 29.57,-457.73 31.46,-455.92 33.66,-454.13 36.18,-452.37 39.01,-450.64 42.15,-448.94 45.57,-447.27 49.29,-445.63 53.28,-444.03 57.55,-442.46 62.07,-440.94 66.83,-439.46 71.83,-438.02 77.05,-436.63 82.48,-435.3 88.1,-434.03 93.89,-432.82 99.83,-431.67 105.92,-430.6 112.14,-429.6 118.45,-428.69 124.86,-427.86 131.33,-427.12 137.85,-426.48 144.4,-425.94 150.96,-425.51 157.51,-425.19 164.03,-424.99 170.49,-424.91 176.89,-424.95 183.2,-425.13 189.4,-425.43 195.47,-425.88 201.4,-426.46 207.16,-427.18 212.74,-428.04 218.13,-429.04 223.3,-430.18 228.24,-431.47 232.94,-432.89 237.38,-434.45 241.55,-436.14 245.44,-437.96 249.04,-439.91 252.33,-441.98 255.31,-444.16 257.98,-446.45 260.32,-448.84 262.32,-451.32 263.99,-453.88 265.33,-456.52 266.31,-459.22 266.96,-461.97 267.26,-464.77 267.22,-467.59 266.84,-470.44 266.13,-473.29 265.08,-476.14 263.69,-478.98 261.99,-481.79"/>
<text text-anchor="middle" x="145.35" y="-466.16" font-family="sans-serif" font-size="16.00">GestionClientes</text>
</g>
<!-- GestionClientes&#45;&gt;GestionAlquileres -->
<g id="edge5" class="edge">
<title>GestionClientes&#45;&gt;GestionAlquileres</title>
<path fill="none" stroke="black" stroke-width="2" d="M218.5,-428.86C242.16,-416.31 268.67,-402.7 293.35,-391.03 317.9,-379.41 345.07,-367.61 369.71,-357.28"/>
<text text-anchor="middle" x="368.85" y="-394.43" font-family="sans-serif" font-size="12.00"> &#160;&#160;&#160;&#160;&#160;&#160;&#160;&#160;&#160;&#160;&#160;&#160;&#160;&#160;&#160;&#160;&#160;&#160;&#160;&#160;&#160;&#160;&#160;&#160;&#160;&#160;&#160;&#160;&#160;&#160;&#160;&#160;&#160;&#160;&#160;&#160;&#160;&#160;&#160;</text>
<polygon fill="white" stroke="transparent" points="362.71,-348.28 362.71,-365.28 376.71,-365.28 376.71,-348.28 362.71,-348.28"/>
<text text-anchor="start" x="364.71" y="-353.68" font-family="sans-serif" font-size="12.00">D</text>
<polygon fill="white" stroke="transparent" points="194.5,-418.86 194.5,-437.86 210.5,-437.86 210.5,-418.86 194.5,-418.86"/>
<polyline fill="none" stroke="black" points="210.5,-418.86 210.5,-437.86 "/>
<text text-anchor="start" x="197.5" y="-425.26" font-family="sans-serif" font-size="12.00">U</text>
<polygon fill="white" stroke="transparent" points="210.5,-418.86 210.5,-437.86 243.5,-437.86 243.5,-418.86 210.5,-418.86"/>
<polygon fill="none" stroke="black" points="210.5,-418.86 210.5,-437.86 243.5,-437.86 243.5,-418.86 210.5,-418.86"/>
<text text-anchor="start" x="213.5" y="-425.26" font-family="sans-serif" font-size="12.00">OHS</text>
</g>
<!-- GestionClientes&#45;&gt;Seguridad -->
<g id="edge4" class="edge">
<title>GestionClientes&#45;&gt;Seguridad</title>
<path fill="none" stroke="black" stroke-width="2" d="M97.72,-431.82C50.83,-390.44 -11.84,-319.51 2.35,-245.27 12.08,-194.36 13.38,-177.67 45.35,-136.88 62.82,-114.58 87.11,-95.35 109.91,-80.31"/>
<text text-anchor="middle" x="77.85" y="-248.67" font-family="sans-serif" font-size="12.00"> &#160;&#160;&#160;&#160;&#160;&#160;&#160;&#160;&#160;&#160;&#160;&#160;&#160;&#160;&#160;&#160;&#160;&#160;&#160;&#160;&#160;&#160;&#160;&#160;&#160;&#160;&#160;&#160;&#160;&#160;&#160;&#160;&#160;&#160;&#160;&#160;&#160;&#160;&#160;</text>
<polygon fill="white" stroke="transparent" points="86.91,-70.31 86.91,-89.31 102.91,-89.31 102.91,-70.31 86.91,-70.31"/>
<polyline fill="none" stroke="black" points="102.91,-70.31 102.91,-89.31 "/>
<text text-anchor="start" x="89.91" y="-76.71" font-family="sans-serif" font-size="12.00">D</text>
<polygon fill="white" stroke="transparent" points="102.91,-70.31 102.91,-89.31 132.91,-89.31 132.91,-70.31 102.91,-70.31"/>
<polygon fill="none" stroke="black" points="102.91,-70.31 102.91,-89.31 132.91,-89.31 132.91,-70.31 102.91,-70.31"/>
<text text-anchor="start" x="105.91" y="-76.71" font-family="sans-serif" font-size="12.00">ACL</text>
<polygon fill="white" stroke="transparent" points="90.72,-422.82 90.72,-439.82 104.72,-439.82 104.72,-422.82 90.72,-422.82"/>
<text text-anchor="start" x="92.72" y="-428.22" font-family="sans-serif" font-size="12.00">U</text>
</g>
<!-- GestionClientes&#45;&gt;GestionPagos -->
<g id="edge6" class="edge">
<title>GestionClientes&#45;&gt;GestionPagos</title>
<path fill="none" stroke="black" stroke-width="2" d="M145.34,-425.54C145.81,-386.37 147.73,-327.25 154.35,-276.27 156.56,-259.2 160.28,-240.62 163.91,-224.57"/>
<text text-anchor="middle" x="229.85" y="-321.55" font-family="sans-serif" font-size="12.00"> &#160;&#160;&#160;&#160;&#160;&#160;&#160;&#160;&#160;&#160;&#160;&#160;&#160;&#160;&#160;&#160;&#160;&#160;&#160;&#160;&#160;&#160;&#160;&#160;&#160;&#160;&#160;&#160;&#160;&#160;&#160;&#160;&#160;&#160;&#160;&#160;&#160;&#160;&#160;</text>
<polygon fill="white" stroke="transparent" points="140.91,-214.57 140.91,-233.57 156.91,-233.57 156.91,-214.57 140.91,-214.57"/>
<polyline fill="none" stroke="black" points="156.91,-214.57 156.91,-233.57 "/>
<text text-anchor="start" x="143.91" y="-220.97" font-family="sans-serif" font-size="12.00">D</text>
<polygon fill="white" stroke="transparent" points="156.91,-214.57 156.91,-233.57 186.91,-233.57 186.91,-214.57 156.91,-214.57"/>
<polygon fill="none" stroke="black" points="156.91,-214.57 156.91,-233.57 186.91,-233.57 186.91,-214.57 156.91,-214.57"/>
<text text-anchor="start" x="159.91" y="-220.97" font-family="sans-serif" font-size="12.00">ACL</text>
<polygon fill="white" stroke="transparent" points="138.34,-416.54 138.34,-433.54 152.34,-433.54 152.34,-416.54 138.34,-416.54"/>
<text text-anchor="start" x="140.34" y="-421.94" font-family="sans-serif" font-size="12.00">U</text>
</g>
<!-- GestionVehiculos -->
<g id="node5" class="node">
<title>GestionVehiculos</title>
<polygon fill="none" stroke="black" stroke-width="2" points="358.88,-501.7 352.66,-499.75 346.73,-497.73 341.11,-495.64 335.83,-493.49 330.9,-491.29 326.35,-489.04 322.19,-486.76 318.46,-484.45 315.15,-482.12 312.29,-479.78 309.88,-477.44 307.94,-475.09 306.47,-472.76 305.47,-470.44 304.96,-468.14 304.93,-465.87 305.38,-463.64 306.3,-461.44 307.7,-459.29 309.55,-457.19 311.85,-455.14 314.59,-453.15 317.75,-451.22 321.31,-449.35 325.27,-447.55 329.59,-445.82 334.27,-444.17 339.27,-442.58 344.57,-441.08 350.15,-439.65 355.99,-438.3 362.06,-437.03 368.34,-435.84 374.79,-434.74 381.39,-433.72 388.13,-432.78 394.96,-431.93 401.87,-431.17 408.84,-430.49 415.83,-429.9 422.83,-429.4 429.82,-428.98 436.77,-428.66 443.66,-428.42 450.47,-428.28 457.19,-428.22 463.8,-428.26 470.29,-428.39 476.64,-428.61 482.83,-428.93 488.86,-429.34 494.72,-429.85 500.39,-430.45 505.87,-431.15 511.16,-431.94 516.24,-432.83 521.11,-433.81 525.77,-434.89 530.21,-436.06 534.43,-437.33 538.43,-438.69 542.21,-440.14 545.76,-441.69 549.08,-443.32 552.18,-445.03 555.04,-446.83 557.68,-448.72 560.09,-450.67 562.26,-452.7 564.21,-454.8 565.91,-456.96 567.38,-459.18 568.62,-461.45 569.61,-463.77 570.36,-466.13 570.86,-468.52 571.11,-470.94 571.11,-473.38 570.85,-475.83 570.33,-478.28 569.54,-480.73 568.49,-483.17 567.16,-485.58 565.56,-487.97 563.67,-490.32 561.5,-492.62 559.04,-494.86 556.29,-497.04 553.25,-499.14 549.92,-501.17 546.3,-503.1 542.39,-504.94 538.18,-506.67 533.69,-508.3 528.92,-509.8 523.87,-511.18 518.55,-512.43 512.97,-513.55 507.13,-514.53 501.06,-515.36 494.76,-516.05 488.25,-516.59 481.54,-516.97 474.65,-517.21 467.59,-517.29 460.4,-517.22 453.09,-517 445.68,-516.62 438.2,-516.1 430.68,-515.43 423.13,-514.62 415.59,-513.67 408.09,-512.59 400.64,-511.37 393.29,-510.03 386.05,-508.58 378.97,-507.01 372.06,-505.33 365.35,-503.56 358.88,-501.7"/>
<text text-anchor="middle" x="448.35" y="-466.16" font-family="sans-serif" font-size="16.00">GestionVehiculos</text>
</g>
<!-- GestionVehiculos&#45;&gt;GestionAlquileres -->
<g id="edge7" class="edge">
<title>GestionVehiculos&#45;&gt;GestionAlquileres</title>
<path fill="none" stroke="black" stroke-width="2" d="M448.35,-428.28C448.35,-409.49 448.35,-387.19 448.35,-368.18"/>
<text text-anchor="middle" x="523.85" y="-394.43" font-family="sans-serif" font-size="12.00"> &#160;&#160;&#160;&#160;&#160;&#160;&#160;&#160;&#160;&#160;&#160;&#160;&#160;&#160;&#160;&#160;&#160;&#160;&#160;&#160;&#160;&#160;&#160;&#160;&#160;&#160;&#160;&#160;&#160;&#160;&#160;&#160;&#160;&#160;&#160;&#160;&#160;&#160;&#160;</text>
<polygon fill="white" stroke="transparent" points="441.35,-359.18 441.35,-376.18 455.35,-376.18 455.35,-359.18 441.35,-359.18"/>
<text text-anchor="start" x="443.35" y="-364.58" font-family="sans-serif" font-size="12.00">D</text>
<polygon fill="white" stroke="transparent" points="413.35,-418.28 413.35,-437.28 429.35,-437.28 429.35,-418.28 413.35,-418.28"/>
<polyline fill="none" stroke="black" points="429.35,-418.28 429.35,-437.28 "/>
<text text-anchor="start" x="416.35" y="-424.68" font-family="sans-serif" font-size="12.00">U</text>
<polygon fill="white" stroke="transparent" points="429.35,-418.28 429.35,-437.28 484.35,-437.28 484.35,-418.28 429.35,-418.28"/>
<polygon fill="none" stroke="black" points="429.35,-418.28 429.35,-437.28 484.35,-437.28 484.35,-418.28 429.35,-418.28"/>
<text text-anchor="start" x="432.35" y="-424.68" font-family="sans-serif" font-size="12.00">OHS, PL</text>
</g>
</g>
</svg>
