<svg width="2000px" height="1255px"
 viewBox="0.00 0.00 846.47 531.05" xmlns="http://www.w3.org/2000/svg" xmlns:xlink="http://www.w3.org/1999/xlink">
<g id="graph0" class="graph" transform="scale(1.0 1.0) rotate(0) translate(4 527.05)">
<title>ContextMapGraph</title>
<polygon fill="white" stroke="transparent" points="-4,4 -4,-527.05 842.47,-527.05 842.47,4 -4,4"/>
<!-- GestionAlquileres -->
<g id="node1" class="node">
<title>GestionAlquileres</title>
<polygon fill="none" stroke="black" stroke-width="2" points="325.64,-298.32 332.96,-299.83 340.05,-301.44 346.86,-303.13 353.38,-304.91 359.56,-306.76 365.4,-308.67 370.85,-310.65 375.91,-312.68 380.56,-314.76 384.76,-316.88 388.51,-319.03 391.8,-321.22 394.61,-323.42 396.93,-325.64 398.76,-327.87 400.09,-330.1 400.92,-332.33 401.26,-334.55 401.11,-336.76 400.46,-338.95 399.34,-341.11 397.75,-343.25 395.7,-345.36 393.21,-347.43 390.29,-349.45 386.96,-351.44 383.24,-353.37 379.16,-355.26 374.72,-357.08 369.97,-358.85 364.91,-360.56 359.57,-362.2 353.99,-363.77 348.18,-365.28 342.16,-366.71 335.97,-368.07 329.63,-369.35 323.17,-370.55 316.6,-371.67 309.95,-372.7 303.24,-373.65 296.5,-374.51 289.75,-375.28 283,-375.96 276.28,-376.54 269.59,-377.03 262.97,-377.42 256.41,-377.71 249.94,-377.9 243.57,-377.99 237.31,-377.98 231.17,-377.86 225.16,-377.64 219.28,-377.31 213.55,-376.87 207.96,-376.32 202.53,-375.67 197.26,-374.91 192.15,-374.04 187.2,-373.07 182.43,-371.98 177.82,-370.8 173.39,-369.51 169.13,-368.12 165.05,-366.63 161.16,-365.04 157.44,-363.36 153.91,-361.59 150.58,-359.73 147.43,-357.79 144.49,-355.78 141.74,-353.69 139.21,-351.53 136.88,-349.31 134.78,-347.03 132.91,-344.71 131.27,-342.34 129.87,-339.94 128.72,-337.51 127.83,-335.06 127.21,-332.6 126.87,-330.13 126.81,-327.67 127.04,-325.22 127.58,-322.78 128.43,-320.38 129.6,-318.01 131.09,-315.69 132.92,-313.42 135.08,-311.21 137.59,-309.07 140.45,-307.01 143.65,-305.03 147.21,-303.14 151.11,-301.35 155.37,-299.66 159.96,-298.09 164.9,-296.63 170.16,-295.29 175.75,-294.07 181.65,-292.99 187.85,-292.03 194.33,-291.22 201.08,-290.54 208.08,-290 215.3,-289.61 222.73,-289.35 230.35,-289.24 238.12,-289.27 246.02,-289.44 254.02,-289.75 262.1,-290.2 270.22,-290.78 278.36,-291.5 286.47,-292.34 294.54,-293.3 302.52,-294.39 310.38,-295.59 318.1,-296.9 325.64,-298.32"/>
<text text-anchor="middle" x="254.47" y="-331.56" font-family="sans-serif" font-size="16.00">GestionAlquileres</text>
</g>
<!-- GestionPagos -->
<g id="node2" class="node">
<title>GestionPagos</title>
<polygon fill="none" stroke="black" stroke-width="2" points="384.76,-179.67 386.69,-176.91 388.89,-174.2 391.35,-171.55 394.08,-168.97 397.05,-166.48 400.26,-164.08 403.7,-161.79 407.36,-159.61 411.23,-157.55 415.29,-155.62 419.54,-153.83 423.96,-152.17 428.53,-150.67 433.26,-149.31 438.11,-148.11 443.09,-147.07 448.18,-146.19 453.35,-145.47 458.61,-144.91 463.94,-144.51 469.32,-144.27 474.73,-144.2 480.18,-144.27 485.64,-144.5 491.09,-144.88 496.54,-145.4 501.95,-146.05 507.33,-146.84 512.65,-147.76 517.91,-148.8 523.09,-149.95 528.18,-151.2 533.17,-152.56 538.05,-154.01 542.79,-155.54 547.4,-157.15 551.87,-158.83 556.17,-160.57 560.3,-162.36 564.25,-164.21 568.01,-166.09 571.57,-168.02 574.92,-169.97 578.05,-171.94 580.95,-173.94 583.61,-175.94 586.04,-177.96 588.21,-179.98 590.12,-182 591.78,-184.01 593.16,-186.02 594.27,-188.02 595.1,-190.01 595.64,-191.98 595.9,-193.94 595.88,-195.88 595.56,-197.8 594.95,-199.7 594.06,-201.58 592.87,-203.43 591.39,-205.26 589.63,-207.06 587.58,-208.83 585.25,-210.58 582.65,-212.3 579.78,-213.98 576.64,-215.64 573.25,-217.25 569.61,-218.83 565.74,-220.38 561.63,-221.88 557.31,-223.33 552.78,-224.74 548.06,-226.09 543.15,-227.39 538.08,-228.63 532.85,-229.81 527.49,-230.92 522,-231.96 516.41,-232.92 510.72,-233.79 504.97,-234.58 499.15,-235.28 493.3,-235.88 487.42,-236.38 481.54,-236.77 475.68,-237.05 469.85,-237.21 464.06,-237.25 458.35,-237.16 452.72,-236.95 447.19,-236.6 441.79,-236.12 436.52,-235.5 431.4,-234.75 426.45,-233.85 421.68,-232.81 417.11,-231.63 412.75,-230.31 408.61,-228.86 404.71,-227.27 401.06,-225.54 397.66,-223.69 394.53,-221.72 391.68,-219.62 389.11,-217.42 386.82,-215.11 384.84,-212.7 383.15,-210.2 381.77,-207.62 380.69,-204.97 379.93,-202.26 379.47,-199.5 379.32,-196.7 379.47,-193.87 379.93,-191.02 380.7,-188.16 381.76,-185.31 383.12,-182.48 384.76,-179.67"/>
<text text-anchor="middle" x="488.47" y="-188.47" font-family="sans-serif" font-size="16.00">GestionPagos</text>
</g>
<!-- GestionAlquileres&#45;&gt;GestionPagos -->
<g id="edge1" class="edge">
<title>GestionAlquileres&#45;&gt;GestionPagos</title>
<path fill="none" stroke="black" stroke-width="2" d="M282.49,-291.91C292.12,-279.78 303.71,-267.4 316.47,-258.3 335.36,-244.83 343.75,-248.44 365.47,-240.3 377.46,-235.81 390.09,-231.03 402.51,-226.3"/>
<text text-anchor="middle" x="391.97" y="-261.7" font-family="sans-serif" font-size="12.00"> &#160;&#160;&#160;&#160;&#160;&#160;&#160;&#160;&#160;&#160;&#160;&#160;&#160;&#160;&#160;&#160;&#160;&#160;&#160;&#160;&#160;&#160;&#160;&#160;&#160;&#160;&#160;&#160;&#160;&#160;&#160;&#160;&#160;&#160;&#160;&#160;&#160;&#160;&#160;</text>
<polygon fill="white" stroke="transparent" points="379.51,-216.3 379.51,-235.3 395.51,-235.3 395.51,-216.3 379.51,-216.3"/>
<polyline fill="none" stroke="black" points="395.51,-216.3 395.51,-235.3 "/>
<text text-anchor="start" x="382.51" y="-222.7" font-family="sans-serif" font-size="12.00">D</text>
<polygon fill="white" stroke="transparent" points="395.51,-216.3 395.51,-235.3 425.51,-235.3 425.51,-216.3 395.51,-216.3"/>
<polygon fill="none" stroke="black" points="395.51,-216.3 395.51,-235.3 425.51,-235.3 425.51,-216.3 395.51,-216.3"/>
<text text-anchor="start" x="398.51" y="-222.7" font-family="sans-serif" font-size="12.00">ACL</text>
<polygon fill="white" stroke="transparent" points="275.49,-282.91 275.49,-299.91 289.49,-299.91 289.49,-282.91 275.49,-282.91"/>
<text text-anchor="start" x="277.49" y="-288.31" font-family="sans-serif" font-size="12.00">U</text>
</g>
<!-- Seguridad -->
<g id="node3" class="node">
<title>Seguridad</title>
<polygon fill="none" stroke="black" stroke-width="2" points="539.72,-83.97 534.88,-85.63 529.92,-87.18 524.86,-88.61 519.74,-89.92 514.56,-91.1 509.35,-92.14 504.13,-93.04 498.91,-93.8 493.71,-94.42 488.55,-94.88 483.45,-95.19 478.42,-95.34 473.47,-95.35 468.63,-95.19 463.91,-94.88 459.31,-94.42 454.85,-93.8 450.53,-93.04 446.38,-92.13 442.39,-91.07 438.58,-89.88 434.94,-88.55 431.49,-87.1 428.23,-85.53 425.16,-83.84 422.29,-82.04 419.61,-80.14 417.13,-78.15 414.85,-76.07 412.77,-73.92 410.89,-71.69 409.2,-69.41 407.71,-67.08 406.42,-64.7 405.31,-62.3 404.4,-59.86 403.67,-57.42 403.13,-54.96 402.77,-52.5 402.59,-50.06 402.59,-47.62 402.77,-45.22 403.13,-42.84 403.65,-40.5 404.35,-38.21 405.22,-35.96 406.26,-33.77 407.47,-31.64 408.84,-29.58 410.39,-27.59 412.1,-25.67 413.98,-23.83 416.02,-22.07 418.23,-20.39 420.6,-18.8 423.14,-17.3 425.84,-15.89 428.71,-14.57 431.73,-13.33 434.92,-12.2 438.25,-11.15 441.75,-10.2 445.39,-9.34 449.18,-8.58 453.11,-7.91 457.17,-7.33 461.36,-6.85 465.68,-6.46 470.11,-6.16 474.64,-5.95 479.26,-5.83 483.97,-5.81 488.75,-5.87 493.59,-6.03 498.48,-6.27 503.4,-6.6 508.34,-7.03 513.28,-7.54 518.21,-8.13 523.1,-8.82 527.95,-9.59 532.73,-10.45 537.43,-11.4 542.03,-12.43 546.5,-13.54 550.84,-14.75 555.03,-16.03 559.04,-17.4 562.86,-18.85 566.48,-20.38 569.87,-21.98 573.02,-23.67 575.92,-25.43 578.56,-27.26 580.91,-29.16 582.97,-31.13 584.73,-33.15 586.18,-35.24 587.31,-37.38 588.11,-39.58 588.59,-41.81 588.73,-44.09 588.54,-46.4 588.01,-48.74 587.15,-51.1 585.96,-53.48 584.44,-55.86 582.61,-58.24 580.46,-60.62 578.01,-62.98 575.27,-65.32 572.24,-67.63 568.95,-69.89 565.41,-72.11 561.62,-74.28 557.62,-76.38 553.41,-78.4 549.01,-80.35 544.44,-82.21 539.72,-83.97"/>
<text text-anchor="middle" x="488.47" y="-43.82" font-family="sans-serif" font-size="16.00">Seguridad</text>
</g>
<!-- GestionAlquileres&#45;&gt;Seguridad -->
<g id="edge2" class="edge">
<title>GestionAlquileres&#45;&gt;Seguridad</title>
<path fill="none" stroke="black" stroke-width="2" d="M228.61,-289.18C208.76,-247.86 189.38,-186.87 219.47,-144.23 260.63,-85.92 340.6,-62.96 402.69,-54.02"/>
<text text-anchor="middle" x="294.97" y="-189.17" font-family="sans-serif" font-size="12.00"> &#160;&#160;&#160;&#160;&#160;&#160;&#160;&#160;&#160;&#160;&#160;&#160;&#160;&#160;&#160;&#160;&#160;&#160;&#160;&#160;&#160;&#160;&#160;&#160;&#160;&#160;&#160;&#160;&#160;&#160;&#160;&#160;&#160;&#160;&#160;&#160;&#160;&#160;&#160;</text>
<polygon fill="white" stroke="transparent" points="379.69,-44.02 379.69,-63.02 395.69,-63.02 395.69,-44.02 379.69,-44.02"/>
<polyline fill="none" stroke="black" points="395.69,-44.02 395.69,-63.02 "/>
<text text-anchor="start" x="382.69" y="-50.42" font-family="sans-serif" font-size="12.00">D</text>
<polygon fill="white" stroke="transparent" points="395.69,-44.02 395.69,-63.02 425.69,-63.02 425.69,-44.02 395.69,-44.02"/>
<polygon fill="none" stroke="black" points="395.69,-44.02 395.69,-63.02 425.69,-63.02 425.69,-44.02 395.69,-44.02"/>
<text text-anchor="start" x="398.69" y="-50.42" font-family="sans-serif" font-size="12.00">ACL</text>
<polygon fill="white" stroke="transparent" points="221.61,-280.18 221.61,-297.18 235.61,-297.18 235.61,-280.18 221.61,-280.18"/>
<text text-anchor="start" x="223.61" y="-285.58" font-family="sans-serif" font-size="12.00">U</text>
</g>
<!-- GestionPagos&#45;&gt;Seguridad -->
<g id="edge3" class="edge">
<title>GestionPagos&#45;&gt;Seguridad</title>
<path fill="none" stroke="black" stroke-width="2" d="M488.47,-144.56C488.47,-128.63 488.47,-110.84 488.47,-94.94"/>
<text text-anchor="middle" x="563.97" y="-116.63" font-family="sans-serif" font-size="12.00"> &#160;&#160;&#160;&#160;&#160;&#160;&#160;&#160;&#160;&#160;&#160;&#160;&#160;&#160;&#160;&#160;&#160;&#160;&#160;&#160;&#160;&#160;&#160;&#160;&#160;&#160;&#160;&#160;&#160;&#160;&#160;&#160;&#160;&#160;&#160;&#160;&#160;&#160;&#160;</text>
<polygon fill="white" stroke="transparent" points="465.47,-84.94 465.47,-103.94 481.47,-103.94 481.47,-84.94 465.47,-84.94"/>
<polyline fill="none" stroke="black" points="481.47,-84.94 481.47,-103.94 "/>
<text text-anchor="start" x="468.47" y="-91.34" font-family="sans-serif" font-size="12.00">D</text>
<polygon fill="white" stroke="transparent" points="481.47,-84.94 481.47,-103.94 511.47,-103.94 511.47,-84.94 481.47,-84.94"/>
<polygon fill="none" stroke="black" points="481.47,-84.94 481.47,-103.94 511.47,-103.94 511.47,-84.94 481.47,-84.94"/>
<text text-anchor="start" x="484.47" y="-91.34" font-family="sans-serif" font-size="12.00">ACL</text>
<polygon fill="white" stroke="transparent" points="481.47,-135.56 481.47,-152.56 495.47,-152.56 495.47,-135.56 481.47,-135.56"/>
<text text-anchor="start" x="483.47" y="-140.96" font-family="sans-serif" font-size="12.00">U</text>
</g>
<!-- GestionClientes -->
<g id="node4" class="node">
<title>GestionClientes</title>
<polygon fill="none" stroke="black" stroke-width="2" points="550.26,-440.74 556.83,-442.33 563.17,-444.01 569.25,-445.77 575.05,-447.61 580.55,-449.52 585.71,-451.49 590.52,-453.52 594.97,-455.6 599.02,-457.72 602.67,-459.87 605.9,-462.06 608.71,-464.26 611.07,-466.49 612.98,-468.72 614.45,-470.96 615.45,-473.19 616.01,-475.42 616.1,-477.63 615.75,-479.82 614.95,-481.99 613.71,-484.13 612.05,-486.24 609.97,-488.31 607.48,-490.33 604.61,-492.32 601.37,-494.25 597.78,-496.13 593.85,-497.95 589.61,-499.72 585.08,-501.42 580.28,-503.06 575.23,-504.63 569.96,-506.13 564.49,-507.56 558.84,-508.91 553.04,-510.19 547.1,-511.39 541.06,-512.51 534.93,-513.55 528.74,-514.5 522.5,-515.36 516.24,-516.14 509.98,-516.83 503.72,-517.42 497.5,-517.92 491.33,-518.33 485.22,-518.64 479.18,-518.86 473.24,-518.97 467.39,-518.99 461.65,-518.9 456.04,-518.71 450.54,-518.42 445.19,-518.02 439.98,-517.52 434.91,-516.92 429.99,-516.2 425.23,-515.39 420.63,-514.46 416.19,-513.44 411.92,-512.31 407.81,-511.07 403.87,-509.74 400.1,-508.31 396.51,-506.78 393.09,-505.16 389.84,-503.44 386.78,-501.64 383.9,-499.76 381.2,-497.79 378.7,-495.76 376.38,-493.65 374.26,-491.47 372.35,-489.24 370.64,-486.95 369.15,-484.62 367.87,-482.25 366.82,-479.85 366,-477.42 365.42,-474.97 365.09,-472.52 365.01,-470.06 365.19,-467.61 365.64,-465.18 366.37,-462.76 367.38,-460.38 368.67,-458.04 370.27,-455.75 372.16,-453.52 374.36,-451.35 376.86,-449.25 379.68,-447.23 382.8,-445.3 386.24,-443.46 390,-441.73 394.06,-440.1 398.42,-438.59 403.08,-437.19 408.04,-435.92 413.28,-434.78 418.79,-433.77 424.56,-432.89 430.58,-432.16 436.83,-431.56 443.3,-431.11 449.96,-430.8 456.8,-430.63 463.79,-430.61 470.91,-430.73 478.13,-430.99 485.44,-431.39 492.8,-431.93 500.19,-432.6 507.58,-433.41 514.94,-434.34 522.23,-435.39 529.45,-436.56 536.54,-437.85 543.49,-439.24 550.26,-440.74"/>
<text text-anchor="middle" x="481.47" y="-472.94" font-family="sans-serif" font-size="16.00">GestionClientes</text>
</g>
<!-- GestionClientes&#45;&gt;GestionAlquileres -->
<g id="edge5" class="edge">
<title>GestionClientes&#45;&gt;GestionAlquileres</title>
<path fill="none" stroke="black" stroke-width="2" d="M380.34,-446.48C358.16,-437.53 335.61,-426.28 316.47,-412.42 302.95,-402.63 290.69,-389.19 280.72,-376.33"/>
<text text-anchor="middle" x="391.97" y="-402.82" font-family="sans-serif" font-size="12.00"> &#160;&#160;&#160;&#160;&#160;&#160;&#160;&#160;&#160;&#160;&#160;&#160;&#160;&#160;&#160;&#160;&#160;&#160;&#160;&#160;&#160;&#160;&#160;&#160;&#160;&#160;&#160;&#160;&#160;&#160;&#160;&#160;&#160;&#160;&#160;&#160;&#160;&#160;&#160;</text>
<polygon fill="white" stroke="transparent" points="273.72,-367.33 273.72,-384.33 287.72,-384.33 287.72,-367.33 273.72,-367.33"/>
<text text-anchor="start" x="275.72" y="-372.73" font-family="sans-serif" font-size="12.00">D</text>
<polygon fill="white" stroke="transparent" points="356.34,-436.48 356.34,-455.48 372.34,-455.48 372.34,-436.48 356.34,-436.48"/>
<polyline fill="none" stroke="black" points="372.34,-436.48 372.34,-455.48 "/>
<text text-anchor="start" x="359.34" y="-442.88" font-family="sans-serif" font-size="12.00">U</text>
<polygon fill="white" stroke="transparent" points="372.34,-436.48 372.34,-455.48 405.34,-455.48 405.34,-436.48 372.34,-436.48"/>
<polygon fill="none" stroke="black" points="372.34,-436.48 372.34,-455.48 405.34,-455.48 405.34,-436.48 372.34,-436.48"/>
<text text-anchor="start" x="375.34" y="-442.88" font-family="sans-serif" font-size="12.00">OHS</text>
</g>
<!-- GestionClientes&#45;&gt;GestionPagos -->
<g id="edge4" class="edge">
<title>GestionClientes&#45;&gt;GestionPagos</title>
<path fill="none" stroke="black" stroke-width="2" d="M482.58,-430.98C483.9,-377.62 486.1,-289.07 487.4,-236.42"/>
<text text-anchor="middle" x="560.97" y="-332.26" font-family="sans-serif" font-size="12.00"> &#160;&#160;&#160;&#160;&#160;&#160;&#160;&#160;&#160;&#160;&#160;&#160;&#160;&#160;&#160;&#160;&#160;&#160;&#160;&#160;&#160;&#160;&#160;&#160;&#160;&#160;&#160;&#160;&#160;&#160;&#160;&#160;&#160;&#160;&#160;&#160;&#160;&#160;&#160;</text>
<polygon fill="white" stroke="transparent" points="464.4,-226.42 464.4,-245.42 480.4,-245.42 480.4,-226.42 464.4,-226.42"/>
<polyline fill="none" stroke="black" points="480.4,-226.42 480.4,-245.42 "/>
<text text-anchor="start" x="467.4" y="-232.82" font-family="sans-serif" font-size="12.00">D</text>
<polygon fill="white" stroke="transparent" points="480.4,-226.42 480.4,-245.42 510.4,-245.42 510.4,-226.42 480.4,-226.42"/>
<polygon fill="none" stroke="black" points="480.4,-226.42 480.4,-245.42 510.4,-245.42 510.4,-226.42 480.4,-226.42"/>
<text text-anchor="start" x="483.4" y="-232.82" font-family="sans-serif" font-size="12.00">ACL</text>
<polygon fill="white" stroke="transparent" points="475.58,-421.98 475.58,-438.98 489.58,-438.98 489.58,-421.98 475.58,-421.98"/>
<text text-anchor="start" x="477.58" y="-427.38" font-family="sans-serif" font-size="12.00">U</text>
</g>
<!-- GestionClientes&#45;&gt;Seguridad -->
<g id="edge6" class="edge">
<title>GestionClientes&#45;&gt;Seguridad</title>
<path fill="none" stroke="black" stroke-width="2" d="M567.51,-444.97C595.82,-430.3 624.18,-409.63 640.47,-381.42 700.07,-278.19 709.59,-212.42 643.47,-113.23 627.79,-89.7 601.74,-74.72 575.43,-65.2"/>
<text text-anchor="middle" x="762.97" y="-261.7" font-family="sans-serif" font-size="12.00"> &#160;&#160;&#160;&#160;&#160;&#160;&#160;&#160;&#160;&#160;&#160;&#160;&#160;&#160;&#160;&#160;&#160;&#160;&#160;&#160;&#160;&#160;&#160;&#160;&#160;&#160;&#160;&#160;&#160;&#160;&#160;&#160;&#160;&#160;&#160;&#160;&#160;&#160;&#160;</text>
<polygon fill="white" stroke="transparent" points="552.43,-55.2 552.43,-74.2 568.43,-74.2 568.43,-55.2 552.43,-55.2"/>
<polyline fill="none" stroke="black" points="568.43,-55.2 568.43,-74.2 "/>
<text text-anchor="start" x="555.43" y="-61.6" font-family="sans-serif" font-size="12.00">D</text>
<polygon fill="white" stroke="transparent" points="568.43,-55.2 568.43,-74.2 598.43,-74.2 598.43,-55.2 568.43,-55.2"/>
<polygon fill="none" stroke="black" points="568.43,-55.2 568.43,-74.2 598.43,-74.2 598.43,-55.2 568.43,-55.2"/>
<text text-anchor="start" x="571.43" y="-61.6" font-family="sans-serif" font-size="12.00">ACL</text>
<polygon fill="white" stroke="transparent" points="560.51,-435.97 560.51,-452.97 574.51,-452.97 574.51,-435.97 560.51,-435.97"/>
<text text-anchor="start" x="562.51" y="-441.37" font-family="sans-serif" font-size="12.00">U</text>
</g>
<!-- GestionVehiculos -->
<g id="node5" class="node">
<title>GestionVehiculos</title>
<polygon fill="none" stroke="black" stroke-width="2" points="151.32,-520.76 142.89,-521.02 134.47,-521.16 126.12,-521.17 117.86,-521.06 109.73,-520.83 101.75,-520.47 93.96,-519.98 86.39,-519.37 79.06,-518.64 72,-517.79 65.23,-516.82 58.79,-515.73 52.67,-514.53 46.92,-513.22 41.53,-511.8 36.52,-510.28 31.91,-508.66 27.71,-506.95 23.91,-505.15 20.54,-503.26 17.57,-501.3 15.03,-499.27 12.9,-497.17 11.19,-495.01 9.88,-492.79 8.98,-490.53 8.47,-488.23 8.33,-485.9 8.57,-483.54 9.17,-481.17 10.11,-478.78 11.39,-476.39 12.98,-474 14.87,-471.63 17.05,-469.27 19.5,-466.93 22.2,-464.63 25.15,-462.37 28.32,-460.15 31.71,-457.98 35.29,-455.87 39.05,-453.82 42.99,-451.84 47.08,-449.94 51.32,-448.12 55.7,-446.38 60.21,-444.73 64.83,-443.18 69.57,-441.72 74.41,-440.37 79.35,-439.12 84.38,-437.98 89.5,-436.95 94.7,-436.03 99.97,-435.22 105.32,-434.54 110.74,-433.96 116.23,-433.51 121.78,-433.18 127.39,-432.97 133.06,-432.87 138.78,-432.89 144.54,-433.03 150.35,-433.29 156.2,-433.66 162.07,-434.15 167.97,-434.75 173.87,-435.46 179.79,-436.28 185.7,-437.2 191.59,-438.22 197.45,-439.34 203.26,-440.56 209.02,-441.87 214.7,-443.27 220.3,-444.76 225.78,-446.32 231.14,-447.97 236.35,-449.68 241.39,-451.47 246.25,-453.32 250.89,-455.23 255.31,-457.19 259.48,-459.2 263.37,-461.26 266.97,-463.36 270.25,-465.49 273.2,-467.65 275.79,-469.84 278.01,-472.05 279.83,-474.27 281.25,-476.5 282.25,-478.73 282.81,-480.96 282.92,-483.18 282.57,-485.39 281.76,-487.58 280.48,-489.74 278.72,-491.88 276.49,-493.98 273.78,-496.03 270.61,-498.05 266.97,-500.01 262.88,-501.91 258.34,-503.75 253.37,-505.52 247.99,-507.22 242.21,-508.85 236.06,-510.39 229.55,-511.84 222.72,-513.2 215.59,-514.47 208.18,-515.64 200.53,-516.71 192.67,-517.67 184.62,-518.52 176.43,-519.25 168.13,-519.87 159.75,-520.38 151.32,-520.76"/>
<text text-anchor="middle" x="141.47" y="-472.94" font-family="sans-serif" font-size="16.00">GestionVehiculos</text>
</g>
<!-- GestionVehiculos&#45;&gt;GestionAlquileres -->
<g id="edge7" class="edge">
<title>GestionVehiculos&#45;&gt;GestionAlquileres</title>
<path fill="none" stroke="black" stroke-width="2" d="M134.51,-432.83C134.59,-421.32 136.59,-409.34 142.47,-399.42 149.65,-387.33 160.07,-377.37 171.72,-369.23"/>
<text text-anchor="middle" x="217.97" y="-402.82" font-family="sans-serif" font-size="12.00"> &#160;&#160;&#160;&#160;&#160;&#160;&#160;&#160;&#160;&#160;&#160;&#160;&#160;&#160;&#160;&#160;&#160;&#160;&#160;&#160;&#160;&#160;&#160;&#160;&#160;&#160;&#160;&#160;&#160;&#160;&#160;&#160;&#160;&#160;&#160;&#160;&#160;&#160;&#160;</text>
<polygon fill="white" stroke="transparent" points="164.72,-360.23 164.72,-377.23 178.72,-377.23 178.72,-360.23 164.72,-360.23"/>
<text text-anchor="start" x="166.72" y="-365.63" font-family="sans-serif" font-size="12.00">D</text>
<polygon fill="white" stroke="transparent" points="99.51,-422.83 99.51,-441.83 115.51,-441.83 115.51,-422.83 99.51,-422.83"/>
<polyline fill="none" stroke="black" points="115.51,-422.83 115.51,-441.83 "/>
<text text-anchor="start" x="102.51" y="-429.23" font-family="sans-serif" font-size="12.00">U</text>
<polygon fill="white" stroke="transparent" points="115.51,-422.83 115.51,-441.83 170.51,-441.83 170.51,-422.83 115.51,-422.83"/>
<polygon fill="none" stroke="black" points="115.51,-422.83 115.51,-441.83 170.51,-441.83 170.51,-422.83 115.51,-422.83"/>
<text text-anchor="start" x="118.51" y="-429.23" font-family="sans-serif" font-size="12.00">OHS, PL</text>
</g>
</g>
</svg>
