<svg width="2000px" height="162px"
 viewBox="0.00 0.00 1299.12 105.38" xmlns="http://www.w3.org/2000/svg" xmlns:xlink="http://www.w3.org/1999/xlink">
<g id="graph0" class="graph" transform="scale(1.0 1.0) rotate(0) translate(4 101.38)">
<title>ContextMapGraph</title>
<polygon fill="white" stroke="transparent" points="-4,4 -4,-101.38 1295.12,-101.38 1295.12,4 -4,4"/>
<!-- GestionAlquileres -->
<g id="node1" class="node">
<title>GestionAlquileres</title>
<polygon fill="none" stroke="black" stroke-width="2" points="263.33,-37.75 265.59,-40.53 267.48,-43.33 269,-46.12 270.14,-48.91 270.88,-51.68 271.23,-54.41 271.18,-57.11 270.72,-59.75 269.87,-62.33 268.61,-64.84 266.95,-67.28 264.89,-69.63 262.43,-71.88 259.59,-74.04 256.38,-76.09 252.79,-78.03 248.84,-79.86 244.55,-81.56 239.92,-83.15 234.97,-84.6 229.72,-85.94 224.18,-87.14 218.38,-88.22 212.33,-89.17 206.05,-89.99 199.56,-90.68 192.89,-91.26 186.05,-91.7 179.08,-92.03 171.98,-92.24 164.8,-92.34 157.54,-92.33 150.24,-92.21 142.91,-91.99 135.59,-91.67 128.29,-91.25 121.04,-90.75 113.85,-90.15 106.76,-89.47 99.79,-88.72 92.95,-87.88 86.26,-86.98 79.75,-86 73.43,-84.96 67.32,-83.86 61.44,-82.69 55.79,-81.47 50.41,-80.19 45.29,-78.85 40.45,-77.46 35.9,-76.03 31.65,-74.54 27.72,-73 24.1,-71.42 20.8,-69.79 17.83,-68.12 15.2,-66.4 12.9,-64.64 10.94,-62.84 9.31,-61 8.03,-59.12 7.09,-57.2 6.49,-55.24 6.22,-53.25 6.28,-51.23 6.68,-49.18 7.4,-47.1 8.44,-44.99 9.8,-42.87 11.47,-40.73 13.44,-38.58 15.7,-36.42 18.26,-34.26 21.1,-32.11 24.21,-29.96 27.59,-27.83 31.23,-25.72 35.12,-23.64 39.25,-21.6 43.61,-19.6 48.19,-17.65 52.98,-15.76 57.97,-13.94 63.16,-12.2 68.53,-10.54 74.06,-8.97 79.76,-7.5 85.6,-6.13 91.57,-4.89 97.67,-3.76 103.88,-2.76 110.19,-1.9 116.58,-1.18 123.04,-0.61 129.55,-0.18 136.11,0.08 142.69,0.19 149.29,0.14 155.87,-0.08 162.44,-0.47 168.97,-1.01 175.45,-1.73 181.86,-2.61 188.18,-3.65 194.39,-4.85 200.49,-6.21 206.44,-7.72 212.23,-9.37 217.85,-11.16 223.28,-13.09 228.5,-15.14 233.49,-17.31 238.23,-19.59 242.72,-21.97 246.93,-24.44 250.85,-26.99 254.46,-29.6 257.75,-32.28 260.72,-35 263.33,-37.75"/>
<text text-anchor="middle" x="135.58" y="-44.89" font-family="sans-serif" font-size="16.00">GestionAlquileres</text>
</g>
<!-- GestionClientes -->
<g id="node2" class="node">
<title>GestionClientes</title>
<polygon fill="none" stroke="black" stroke-width="2" points="354.31,-12.33 360.77,-10.67 367.38,-9.13 374.11,-7.69 380.93,-6.39 387.83,-5.21 394.77,-4.17 401.72,-3.26 408.68,-2.5 415.6,-1.89 422.47,-1.43 429.27,-1.12 435.97,-0.96 442.55,-0.96 449,-1.11 455.29,-1.42 461.42,-1.89 467.36,-2.5 473.11,-3.27 478.64,-4.18 483.95,-5.23 489.03,-6.43 493.87,-7.75 498.47,-9.2 502.81,-10.78 506.9,-12.47 510.73,-14.27 514.29,-16.17 517.59,-18.16 520.63,-20.24 523.4,-22.39 525.91,-24.61 528.15,-26.89 530.14,-29.23 531.87,-31.6 533.34,-34.01 534.55,-36.44 535.52,-38.89 536.24,-41.35 536.72,-43.8 536.96,-46.25 536.96,-48.68 536.72,-51.09 536.25,-53.47 535.55,-55.8 534.62,-58.1 533.46,-60.34 532.07,-62.53 530.46,-64.66 528.63,-66.72 526.57,-68.71 524.3,-70.63 521.8,-72.47 519.07,-74.23 516.13,-75.91 512.97,-77.5 509.59,-79 505.99,-80.42 502.18,-81.74 498.15,-82.97 493.91,-84.11 489.46,-85.15 484.81,-86.1 479.96,-86.96 474.91,-87.73 469.68,-88.4 464.27,-88.97 458.68,-89.46 452.94,-89.85 447.04,-90.15 441,-90.35 434.84,-90.47 428.57,-90.5 422.2,-90.43 415.75,-90.28 409.24,-90.03 402.69,-89.7 396.11,-89.28 389.54,-88.77 382.97,-88.17 376.46,-87.49 370,-86.71 363.63,-85.85 357.37,-84.91 351.25,-83.88 345.29,-82.76 339.5,-81.56 333.93,-80.27 328.59,-78.91 323.5,-77.46 318.68,-75.93 314.16,-74.32 309.96,-72.64 306.1,-70.88 302.6,-69.05 299.46,-67.15 296.72,-65.18 294.37,-63.15 292.45,-61.06 290.94,-58.92 289.87,-56.73 289.24,-54.49 289.05,-52.21 289.3,-49.9 290,-47.56 291.15,-45.2 292.74,-42.83 294.75,-40.45 297.2,-38.06 300.06,-35.69 303.32,-33.32 306.98,-30.99 311,-28.68 315.39,-26.41 320.11,-24.19 325.15,-22.03 330.48,-19.93 336.09,-17.9 341.95,-15.95 348.03,-14.1 354.31,-12.33"/>
<text text-anchor="middle" x="422.58" y="-44.89" font-family="sans-serif" font-size="16.00">GestionClientes</text>
</g>
<!-- GestionPagos -->
<g id="node3" class="node">
<title>GestionPagos</title>
<polygon fill="none" stroke="black" stroke-width="2" points="791.12,-47.65 791.39,-50.52 791.36,-53.38 791.03,-56.22 790.4,-59.01 789.47,-61.76 788.23,-64.44 786.7,-67.06 784.87,-69.6 782.75,-72.05 780.35,-74.4 777.67,-76.64 774.72,-78.77 771.5,-80.78 768.03,-82.66 764.31,-84.42 760.36,-86.04 756.18,-87.51 751.79,-88.85 747.2,-90.04 742.42,-91.09 737.47,-91.99 732.37,-92.75 727.11,-93.36 721.73,-93.83 716.24,-94.16 710.65,-94.35 704.98,-94.4 699.25,-94.32 693.47,-94.12 687.66,-93.79 681.84,-93.35 676.03,-92.79 670.24,-92.13 664.48,-91.36 658.78,-90.5 653.16,-89.55 647.62,-88.51 642.19,-87.39 636.88,-86.2 631.7,-84.94 626.68,-83.62 621.81,-82.23 617.13,-80.79 612.64,-79.31 608.35,-77.77 604.27,-76.2 600.42,-74.58 596.81,-72.93 593.44,-71.25 590.33,-69.54 587.48,-67.8 584.89,-66.03 582.58,-64.24 580.56,-62.43 578.81,-60.6 577.36,-58.75 576.2,-56.88 575.33,-54.99 574.75,-53.09 574.47,-51.18 574.48,-49.25 574.79,-47.32 575.39,-45.37 576.28,-43.41 577.45,-41.45 578.9,-39.48 580.63,-37.51 582.63,-35.55 584.9,-33.58 587.42,-31.63 590.19,-29.68 593.2,-27.75 596.45,-25.84 599.92,-23.96 603.61,-22.11 607.5,-20.29 611.59,-18.51 615.86,-16.78 620.3,-15.1 624.91,-13.48 629.66,-11.93 634.55,-10.46 639.56,-9.06 644.69,-7.75 649.92,-6.54 655.23,-5.43 660.61,-4.43 666.05,-3.54 671.53,-2.77 677.05,-2.14 682.58,-1.63 688.12,-1.27 693.64,-1.05 699.14,-0.97 704.6,-1.05 710.01,-1.29 715.35,-1.68 720.61,-2.22 725.78,-2.93 730.83,-3.8 735.77,-4.82 740.57,-6 745.22,-7.34 749.72,-8.83 754.04,-10.46 758.17,-12.24 762.11,-14.15 765.84,-16.2 769.36,-18.37 772.65,-20.65 775.69,-23.04 778.49,-25.52 781.04,-28.1 783.32,-30.75 785.33,-33.46 787.07,-36.24 788.52,-39.05 789.68,-41.9 790.55,-44.77 791.12,-47.65"/>
<text text-anchor="middle" x="682.58" y="-44.89" font-family="sans-serif" font-size="16.00">GestionPagos</text>
</g>
<!-- GestionVehiculos -->
<g id="node4" class="node">
<title>GestionVehiculos</title>
<polygon fill="none" stroke="black" stroke-width="2" points="1036.24,-81.51 1029.96,-83.43 1023.49,-85.25 1016.85,-86.96 1010.06,-88.55 1003.14,-90.01 996.14,-91.35 989.06,-92.54 981.93,-93.6 974.79,-94.51 967.64,-95.27 960.52,-95.87 953.45,-96.32 946.45,-96.61 939.53,-96.74 932.73,-96.72 926.04,-96.53 919.5,-96.18 913.12,-95.68 906.9,-95.03 900.87,-94.22 895.04,-93.27 889.41,-92.18 884,-90.95 878.82,-89.59 873.86,-88.1 869.15,-86.5 864.67,-84.78 860.45,-82.97 856.47,-81.05 852.75,-79.05 849.29,-76.97 846.08,-74.82 843.13,-72.61 840.44,-70.35 838.01,-68.04 835.84,-65.7 833.93,-63.33 832.29,-60.94 830.9,-58.54 829.77,-56.13 828.9,-53.74 828.29,-51.35 827.93,-48.99 827.84,-46.66 828.01,-44.35 828.43,-42.09 829.12,-39.87 830.07,-37.7 831.28,-35.59 832.75,-33.54 834.49,-31.54 836.49,-29.62 838.75,-27.77 841.28,-25.98 844.07,-24.28 847.13,-22.65 850.45,-21.09 854.04,-19.62 857.88,-18.23 861.98,-16.92 866.34,-15.7 870.95,-14.56 875.8,-13.5 880.9,-12.52 886.22,-11.63 891.77,-10.82 897.54,-10.1 903.51,-9.46 909.68,-8.91 916.02,-8.44 922.54,-8.05 929.2,-7.75 936,-7.53 942.91,-7.4 949.93,-7.35 957.02,-7.39 964.16,-7.52 971.35,-7.73 978.54,-8.03 985.72,-8.42 992.87,-8.9 999.95,-9.46 1006.95,-10.12 1013.83,-10.87 1020.58,-11.7 1027.16,-12.63 1033.55,-13.65 1039.73,-14.77 1045.66,-15.97 1051.33,-17.27 1056.71,-18.65 1061.79,-20.13 1066.53,-21.69 1070.91,-23.34 1074.93,-25.08 1078.55,-26.89 1081.77,-28.79 1084.57,-30.76 1086.94,-32.81 1088.87,-34.92 1090.35,-37.1 1091.37,-39.33 1091.92,-41.62 1092.02,-43.96 1091.64,-46.34 1090.81,-48.75 1089.52,-51.18 1087.77,-53.64 1085.58,-56.11 1082.95,-58.58 1079.91,-61.04 1076.45,-63.5 1072.6,-65.92 1068.37,-68.32 1063.79,-70.67 1058.87,-72.98 1053.63,-75.22 1048.1,-77.4 1042.29,-79.5 1036.24,-81.51"/>
<text text-anchor="middle" x="950.58" y="-44.89" font-family="sans-serif" font-size="16.00">GestionVehiculos</text>
</g>
<!-- Seguridad -->
<g id="node5" class="node">
<title>Seguridad</title>
<polygon fill="none" stroke="black" stroke-width="2" points="1290.91,-53.03 1290.41,-55.9 1289.67,-58.74 1288.68,-61.54 1287.46,-64.29 1285.99,-66.98 1284.29,-69.59 1282.36,-72.11 1280.21,-74.54 1277.84,-76.87 1275.25,-79.09 1272.46,-81.19 1269.48,-83.16 1266.3,-85 1262.95,-86.7 1259.42,-88.26 1255.74,-89.67 1251.9,-90.94 1247.92,-92.05 1243.81,-93.01 1239.59,-93.81 1235.25,-94.47 1230.82,-94.96 1226.31,-95.31 1221.73,-95.51 1217.09,-95.57 1212.4,-95.48 1207.69,-95.25 1202.95,-94.89 1198.2,-94.4 1193.47,-93.79 1188.75,-93.06 1184.06,-92.22 1179.42,-91.27 1174.84,-90.22 1170.33,-89.08 1165.9,-87.86 1161.57,-86.55 1157.34,-85.17 1153.23,-83.72 1149.25,-82.21 1145.41,-80.65 1141.73,-79.03 1138.2,-77.37 1134.85,-75.67 1131.67,-73.93 1128.69,-72.16 1125.9,-70.37 1123.32,-68.55 1120.94,-66.71 1118.79,-64.85 1116.86,-62.98 1115.16,-61.1 1113.69,-59.2 1112.47,-57.3 1111.48,-55.39 1110.74,-53.48 1110.24,-51.57 1109.99,-49.65 1109.99,-47.73 1110.24,-45.81 1110.74,-43.9 1111.48,-41.99 1112.47,-40.08 1113.69,-38.18 1115.16,-36.28 1116.86,-34.4 1118.79,-32.53 1120.94,-30.67 1123.32,-28.83 1125.9,-27.01 1128.69,-25.22 1131.67,-23.45 1134.85,-21.71 1138.2,-20.01 1141.73,-18.35 1145.41,-16.73 1149.25,-15.17 1153.23,-13.66 1157.34,-12.21 1161.57,-10.83 1165.9,-9.52 1170.33,-8.3 1174.84,-7.16 1179.42,-6.11 1184.06,-5.16 1188.75,-4.32 1193.47,-3.59 1198.2,-2.98 1202.95,-2.49 1207.69,-2.13 1212.4,-1.9 1217.09,-1.81 1221.73,-1.87 1226.31,-2.07 1230.82,-2.42 1235.25,-2.91 1239.59,-3.57 1243.81,-4.37 1247.92,-5.33 1251.9,-6.44 1255.74,-7.71 1259.42,-9.12 1262.95,-10.68 1266.3,-12.38 1269.48,-14.22 1272.46,-16.19 1275.25,-18.29 1277.84,-20.51 1280.21,-22.84 1282.36,-25.27 1284.29,-27.79 1285.99,-30.4 1287.46,-33.09 1288.68,-35.84 1289.67,-38.64 1290.41,-41.48 1290.91,-44.35 1291.16,-47.24 1291.16,-50.14 1290.91,-53.03"/>
<text text-anchor="middle" x="1200.58" y="-44.89" font-family="sans-serif" font-size="16.00">Seguridad</text>
</g>
</g>
</svg>
