<svg width="2000px" height="1272px"
 viewBox="0.00 0.00 842.70 536.00" xmlns="http://www.w3.org/2000/svg" xmlns:xlink="http://www.w3.org/1999/xlink">
<g id="graph0" class="graph" transform="scale(1.0 1.0) rotate(0) translate(4 532)">
<title>ContextMapGraph</title>
<polygon fill="white" stroke="transparent" points="-4,4 -4,-532 838.7,-532 838.7,4 -4,4"/>
<!-- GestionAlquileres -->
<g id="node1" class="node">
<title>GestionAlquileres</title>
<polygon fill="none" stroke="black" stroke-width="2" points="219.21,-301.15 225.78,-299.29 232.54,-297.54 239.46,-295.9 246.52,-294.38 253.69,-292.99 260.94,-291.73 268.25,-290.61 275.6,-289.63 282.94,-288.8 290.27,-288.12 297.56,-287.6 304.79,-287.23 311.93,-287.02 318.96,-286.97 325.87,-287.08 332.63,-287.35 339.23,-287.77 345.66,-288.35 351.9,-289.08 357.93,-289.96 363.75,-290.99 369.35,-292.16 374.71,-293.46 379.83,-294.89 384.7,-296.44 389.32,-298.11 393.68,-299.89 397.78,-301.77 401.61,-303.75 405.18,-305.8 408.48,-307.94 411.51,-310.14 414.27,-312.4 416.76,-314.71 418.98,-317.06 420.94,-319.45 422.62,-321.86 424.05,-324.28 425.2,-326.71 426.1,-329.14 426.73,-331.57 427.1,-333.97 427.21,-336.35 427.06,-338.71 426.65,-341.02 425.98,-343.29 425.04,-345.52 423.85,-347.69 422.4,-349.8 420.69,-351.85 418.72,-353.84 416.49,-355.75 414,-357.59 411.24,-359.35 408.23,-361.04 404.96,-362.64 401.42,-364.16 397.63,-365.6 393.58,-366.96 389.28,-368.22 384.73,-369.41 379.93,-370.5 374.9,-371.51 369.62,-372.43 364.12,-373.26 358.41,-374.01 352.48,-374.67 346.35,-375.24 340.03,-375.73 333.54,-376.13 326.89,-376.44 320.1,-376.66 313.17,-376.8 306.14,-376.85 299.02,-376.81 291.83,-376.69 284.58,-376.48 277.32,-376.18 270.05,-375.79 262.8,-375.32 255.6,-374.75 248.47,-374.1 241.44,-373.35 234.53,-372.52 227.77,-371.6 221.19,-370.58 214.81,-369.48 208.66,-368.29 202.76,-367.01 197.14,-365.64 191.82,-364.18 186.83,-362.63 182.18,-361 177.9,-359.29 174.01,-357.5 170.52,-355.62 167.45,-353.68 164.82,-351.66 162.63,-349.57 160.89,-347.42 159.62,-345.21 158.83,-342.95 158.5,-340.64 158.65,-338.29 159.28,-335.9 160.38,-333.48 161.95,-331.05 163.98,-328.59 166.46,-326.14 169.39,-323.68 172.74,-321.24 176.5,-318.81 180.67,-316.41 185.21,-314.05 190.11,-311.73 195.34,-309.47 200.9,-307.28 206.74,-305.15 212.85,-303.11 219.21,-301.15"/>
<text text-anchor="middle" x="302.7" y="-331.4" font-family="sans-serif" font-size="16.00">GestionAlquileres</text>
</g>
<!-- GestionPagos -->
<g id="node2" class="node">
<title>GestionPagos</title>
<polygon fill="none" stroke="black" stroke-width="2" points="383.85,-207.29 380.83,-204.7 378.1,-202.08 375.68,-199.43 373.57,-196.77 371.78,-194.11 370.33,-191.45 369.22,-188.82 368.46,-186.2 368.05,-183.63 368,-181.1 368.31,-178.62 368.97,-176.2 370,-173.86 371.38,-171.58 373.11,-169.39 375.19,-167.29 377.6,-165.27 380.36,-163.36 383.43,-161.54 386.82,-159.83 390.5,-158.22 394.47,-156.72 398.71,-155.34 403.21,-154.06 407.95,-152.89 412.91,-151.84 418.07,-150.89 423.42,-150.06 428.93,-149.34 434.59,-148.72 440.37,-148.21 446.26,-147.8 452.23,-147.5 458.26,-147.29 464.33,-147.18 470.42,-147.17 476.52,-147.25 482.59,-147.41 488.62,-147.67 494.6,-148.01 500.5,-148.43 506.3,-148.93 512,-149.51 517.56,-150.16 522.99,-150.89 528.25,-151.69 533.35,-152.56 538.26,-153.5 542.98,-154.51 547.49,-155.59 551.79,-156.73 555.87,-157.94 559.72,-159.22 563.33,-160.56 566.69,-161.96 569.81,-163.43 572.68,-164.95 575.3,-166.54 577.66,-168.19 579.76,-169.9 581.6,-171.67 583.18,-173.49 584.51,-175.37 585.58,-177.3 586.39,-179.28 586.94,-181.31 587.25,-183.39 587.3,-185.51 587.11,-187.66 586.67,-189.85 586,-192.07 585.08,-194.31 583.93,-196.57 582.55,-198.84 580.95,-201.12 579.12,-203.4 577.07,-205.68 574.81,-207.93 572.34,-210.17 569.66,-212.38 566.78,-214.55 563.7,-216.67 560.43,-218.74 556.97,-220.74 553.34,-222.68 549.52,-224.53 545.53,-226.3 541.38,-227.97 537.07,-229.53 532.61,-230.99 528.01,-232.32 523.26,-233.53 518.39,-234.6 513.41,-235.54 508.31,-236.33 503.11,-236.96 497.82,-237.45 492.45,-237.78 487.02,-237.94 481.53,-237.95 476.01,-237.79 470.45,-237.46 464.88,-236.97 459.32,-236.32 453.77,-235.5 448.25,-234.52 442.79,-233.39 437.38,-232.11 432.06,-230.68 426.84,-229.11 421.74,-227.4 416.77,-225.56 411.95,-223.61 407.3,-221.54 402.83,-219.37 398.57,-217.11 394.52,-214.75 390.71,-212.33 387.15,-209.84 383.85,-207.29"/>
<text text-anchor="middle" x="482.7" y="-185.43" font-family="sans-serif" font-size="16.00">GestionPagos</text>
</g>
<!-- GestionAlquileres&#45;&gt;GestionPagos -->
<g id="edge1" class="edge">
<title>GestionAlquileres&#45;&gt;GestionPagos</title>
<path fill="none" stroke="black" stroke-width="2" d="M304.08,-287.1C306.36,-275.97 310.49,-264.82 317.7,-256.09 335.48,-234.56 361.31,-220.03 387.27,-210.23"/>
<text text-anchor="middle" x="393.2" y="-259.49" font-family="sans-serif" font-size="12.00"> &#160;&#160;&#160;&#160;&#160;&#160;&#160;&#160;&#160;&#160;&#160;&#160;&#160;&#160;&#160;&#160;&#160;&#160;&#160;&#160;&#160;&#160;&#160;&#160;&#160;&#160;&#160;&#160;&#160;&#160;&#160;&#160;&#160;&#160;&#160;&#160;&#160;&#160;&#160;</text>
<polygon fill="white" stroke="transparent" points="364.27,-200.23 364.27,-219.23 380.27,-219.23 380.27,-200.23 364.27,-200.23"/>
<polyline fill="none" stroke="black" points="380.27,-200.23 380.27,-219.23 "/>
<text text-anchor="start" x="367.27" y="-206.63" font-family="sans-serif" font-size="12.00">D</text>
<polygon fill="white" stroke="transparent" points="380.27,-200.23 380.27,-219.23 410.27,-219.23 410.27,-200.23 380.27,-200.23"/>
<polygon fill="none" stroke="black" points="380.27,-200.23 380.27,-219.23 410.27,-219.23 410.27,-200.23 380.27,-200.23"/>
<text text-anchor="start" x="383.27" y="-206.63" font-family="sans-serif" font-size="12.00">ACL</text>
<polygon fill="white" stroke="transparent" points="297.08,-278.1 297.08,-295.1 311.08,-295.1 311.08,-278.1 297.08,-278.1"/>
<text text-anchor="start" x="299.08" y="-283.5" font-family="sans-serif" font-size="12.00">U</text>
</g>
<!-- Seguridad -->
<g id="node3" class="node">
<title>Seguridad</title>
<polygon fill="none" stroke="black" stroke-width="2" points="601.22,-87.55 595.63,-88.5 590,-89.32 584.35,-90.02 578.7,-90.6 573.07,-91.04 567.48,-91.34 561.96,-91.52 556.53,-91.55 551.2,-91.44 545.99,-91.2 540.93,-90.81 536.02,-90.29 531.28,-89.63 526.73,-88.83 522.37,-87.9 518.23,-86.84 514.3,-85.65 510.6,-84.34 507.14,-82.9 503.91,-81.35 500.93,-79.69 498.2,-77.93 495.72,-76.07 493.49,-74.12 491.5,-72.08 489.77,-69.96 488.28,-67.78 487.03,-65.53 486.02,-63.22 485.25,-60.87 484.71,-58.48 484.38,-56.06 484.28,-53.61 484.38,-51.15 484.69,-48.68 485.19,-46.22 485.88,-43.76 486.75,-41.33 487.8,-38.91 489.02,-36.53 490.4,-34.19 491.93,-31.9 493.62,-29.66 495.45,-27.48 497.42,-25.36 499.52,-23.32 501.76,-21.35 504.12,-19.46 506.61,-17.66 509.22,-15.95 511.95,-14.33 514.79,-12.81 517.74,-11.39 520.81,-10.07 523.99,-8.86 527.27,-7.75 530.66,-6.75 534.16,-5.86 537.75,-5.08 541.45,-4.41 545.24,-3.85 549.13,-3.4 553.1,-3.07 557.17,-2.84 561.31,-2.72 565.53,-2.71 569.83,-2.8 574.18,-3 578.59,-3.31 583.05,-3.72 587.55,-4.22 592.08,-4.83 596.63,-5.53 601.18,-6.33 605.72,-7.22 610.25,-8.2 614.74,-9.26 619.19,-10.42 623.57,-11.65 627.87,-12.97 632.08,-14.36 636.18,-15.83 640.14,-17.37 643.96,-18.97 647.62,-20.65 651.1,-22.39 654.38,-24.18 657.46,-26.04 660.3,-27.94 662.89,-29.9 665.23,-31.9 667.3,-33.95 669.08,-36.03 670.57,-38.14 671.75,-40.29 672.61,-42.46 673.14,-44.65 673.35,-46.85 673.22,-49.06 672.75,-51.28 671.93,-53.5 670.78,-55.71 669.29,-57.91 667.46,-60.09 665.29,-62.25 662.81,-64.38 660,-66.47 656.89,-68.52 653.49,-70.52 649.8,-72.46 645.85,-74.35 641.64,-76.16 637.2,-77.91 632.55,-79.57 627.7,-81.15 622.67,-82.63 617.48,-84.02 612.17,-85.3 606.74,-86.48 601.22,-87.55"/>
<text text-anchor="middle" x="572.7" y="-41.88" font-family="sans-serif" font-size="16.00">Seguridad</text>
</g>
<!-- GestionPagos&#45;&gt;Seguridad -->
<g id="edge2" class="edge">
<title>GestionPagos&#45;&gt;Seguridad</title>
<path fill="none" stroke="black" stroke-width="2" d="M484.45,-147.42C486.4,-134.57 490.04,-120.77 496.7,-109.37 501.62,-100.95 508.11,-93.17 515.24,-86.16"/>
<text text-anchor="middle" x="572.2" y="-112.77" font-family="sans-serif" font-size="12.00"> &#160;&#160;&#160;&#160;&#160;&#160;&#160;&#160;&#160;&#160;&#160;&#160;&#160;&#160;&#160;&#160;&#160;&#160;&#160;&#160;&#160;&#160;&#160;&#160;&#160;&#160;&#160;&#160;&#160;&#160;&#160;&#160;&#160;&#160;&#160;&#160;&#160;&#160;&#160;</text>
<polygon fill="white" stroke="transparent" points="492.24,-76.16 492.24,-95.16 508.24,-95.16 508.24,-76.16 492.24,-76.16"/>
<polyline fill="none" stroke="black" points="508.24,-76.16 508.24,-95.16 "/>
<text text-anchor="start" x="495.24" y="-82.56" font-family="sans-serif" font-size="12.00">D</text>
<polygon fill="white" stroke="transparent" points="508.24,-76.16 508.24,-95.16 538.24,-95.16 538.24,-76.16 508.24,-76.16"/>
<polygon fill="none" stroke="black" points="508.24,-76.16 508.24,-95.16 538.24,-95.16 538.24,-76.16 508.24,-76.16"/>
<text text-anchor="start" x="511.24" y="-82.56" font-family="sans-serif" font-size="12.00">ACL</text>
<polygon fill="white" stroke="transparent" points="477.45,-138.42 477.45,-155.42 491.45,-155.42 491.45,-138.42 477.45,-138.42"/>
<text text-anchor="start" x="479.45" y="-143.82" font-family="sans-serif" font-size="12.00">U</text>
</g>
<!-- GestionClientes -->
<g id="node4" class="node">
<title>GestionClientes</title>
<polygon fill="none" stroke="black" stroke-width="2" points="533.29,-440.15 540.54,-441.31 547.61,-442.58 554.46,-443.94 561.07,-445.39 567.41,-446.94 573.46,-448.57 579.19,-450.27 584.58,-452.05 589.6,-453.89 594.24,-455.8 598.49,-457.76 602.32,-459.77 605.72,-461.82 608.68,-463.91 611.2,-466.03 613.28,-468.18 614.89,-470.35 616.05,-472.54 616.76,-474.73 617.01,-476.93 616.82,-479.13 616.19,-481.33 615.13,-483.51 613.66,-485.67 611.78,-487.82 609.51,-489.94 606.87,-492.03 603.87,-494.08 600.53,-496.1 596.88,-498.07 592.93,-500 588.7,-501.87 584.22,-503.69 579.51,-505.45 574.58,-507.15 569.47,-508.78 564.18,-510.35 558.76,-511.84 553.2,-513.25 547.55,-514.58 541.8,-515.83 536,-517 530.14,-518.08 524.26,-519.06 518.36,-519.95 512.46,-520.75 506.58,-521.44 500.72,-522.03 494.91,-522.52 489.14,-522.91 483.43,-523.18 477.8,-523.35 472.24,-523.41 466.76,-523.35 461.37,-523.19 456.07,-522.91 450.88,-522.51 445.78,-522 440.8,-521.38 435.92,-520.64 431.16,-519.79 426.51,-518.83 421.98,-517.76 417.57,-516.58 413.28,-515.29 409.12,-513.9 405.1,-512.41 401.2,-510.82 397.45,-509.13 393.84,-507.36 390.39,-505.49 387.09,-503.55 383.95,-501.53 380.98,-499.44 378.2,-497.28 375.6,-495.07 373.2,-492.8 371,-490.49 369.02,-488.13 367.28,-485.74 365.76,-483.33 364.5,-480.9 363.5,-478.47 362.78,-476.02 362.33,-473.59 362.18,-471.17 362.34,-468.77 362.81,-466.4 363.6,-464.06 364.72,-461.77 366.19,-459.54 367.99,-457.36 370.15,-455.25 372.67,-453.21 375.53,-451.26 378.76,-449.39 382.34,-447.61 386.27,-445.94 390.55,-444.37 395.17,-442.9 400.13,-441.55 405.41,-440.32 411,-439.21 416.88,-438.23 423.05,-437.37 429.47,-436.64 436.14,-436.04 443.03,-435.58 450.12,-435.25 457.38,-435.05 464.79,-434.99 472.32,-435.06 479.94,-435.26 487.62,-435.59 495.33,-436.04 503.04,-436.63 510.73,-437.33 518.35,-438.16 525.88,-439.1 533.29,-440.15"/>
<text text-anchor="middle" x="482.7" y="-476.36" font-family="sans-serif" font-size="16.00">GestionClientes</text>
</g>
<!-- GestionClientes&#45;&gt;GestionAlquileres -->
<g id="edge3" class="edge">
<title>GestionClientes&#45;&gt;GestionAlquileres</title>
<path fill="none" stroke="black" stroke-width="2" d="M371.88,-453.44C351.37,-444.13 331.96,-431.49 317.7,-414.32 309.06,-403.91 304.83,-390.02 302.91,-376.84"/>
<text text-anchor="middle" x="393.2" y="-404.72" font-family="sans-serif" font-size="12.00"> &#160;&#160;&#160;&#160;&#160;&#160;&#160;&#160;&#160;&#160;&#160;&#160;&#160;&#160;&#160;&#160;&#160;&#160;&#160;&#160;&#160;&#160;&#160;&#160;&#160;&#160;&#160;&#160;&#160;&#160;&#160;&#160;&#160;&#160;&#160;&#160;&#160;&#160;&#160;</text>
<polygon fill="white" stroke="transparent" points="295.91,-367.84 295.91,-384.84 309.91,-384.84 309.91,-367.84 295.91,-367.84"/>
<text text-anchor="start" x="297.91" y="-373.24" font-family="sans-serif" font-size="12.00">D</text>
<polygon fill="white" stroke="transparent" points="347.88,-443.44 347.88,-462.44 363.88,-462.44 363.88,-443.44 347.88,-443.44"/>
<polyline fill="none" stroke="black" points="363.88,-443.44 363.88,-462.44 "/>
<text text-anchor="start" x="350.88" y="-449.84" font-family="sans-serif" font-size="12.00">U</text>
<polygon fill="white" stroke="transparent" points="363.88,-443.44 363.88,-462.44 396.88,-462.44 396.88,-443.44 363.88,-443.44"/>
<polygon fill="none" stroke="black" points="363.88,-443.44 363.88,-462.44 396.88,-462.44 396.88,-443.44 363.88,-443.44"/>
<text text-anchor="start" x="366.88" y="-449.84" font-family="sans-serif" font-size="12.00">OHS</text>
</g>
<!-- GestionClientes&#45;&gt;GestionPagos -->
<g id="edge4" class="edge">
<title>GestionClientes&#45;&gt;GestionPagos</title>
<path fill="none" stroke="black" stroke-width="2" d="M482.7,-435.28C482.7,-382.23 482.7,-293.27 482.7,-238.38"/>
<text text-anchor="middle" x="558.2" y="-332.1" font-family="sans-serif" font-size="12.00"> &#160;&#160;&#160;&#160;&#160;&#160;&#160;&#160;&#160;&#160;&#160;&#160;&#160;&#160;&#160;&#160;&#160;&#160;&#160;&#160;&#160;&#160;&#160;&#160;&#160;&#160;&#160;&#160;&#160;&#160;&#160;&#160;&#160;&#160;&#160;&#160;&#160;&#160;&#160;</text>
<polygon fill="white" stroke="transparent" points="459.7,-228.38 459.7,-247.38 475.7,-247.38 475.7,-228.38 459.7,-228.38"/>
<polyline fill="none" stroke="black" points="475.7,-228.38 475.7,-247.38 "/>
<text text-anchor="start" x="462.7" y="-234.78" font-family="sans-serif" font-size="12.00">D</text>
<polygon fill="white" stroke="transparent" points="475.7,-228.38 475.7,-247.38 505.7,-247.38 505.7,-228.38 475.7,-228.38"/>
<polygon fill="none" stroke="black" points="475.7,-228.38 475.7,-247.38 505.7,-247.38 505.7,-228.38 475.7,-228.38"/>
<text text-anchor="start" x="478.7" y="-234.78" font-family="sans-serif" font-size="12.00">ACL</text>
<polygon fill="white" stroke="transparent" points="475.7,-426.28 475.7,-443.28 489.7,-443.28 489.7,-426.28 475.7,-426.28"/>
<text text-anchor="start" x="477.7" y="-431.68" font-family="sans-serif" font-size="12.00">U</text>
</g>
<!-- GestionClientes&#45;&gt;Seguridad -->
<g id="edge5" class="edge">
<title>GestionClientes&#45;&gt;Seguridad</title>
<path fill="none" stroke="black" stroke-width="2" d="M566.67,-446.67C594.09,-431.67 621.61,-410.93 637.7,-383.32 699.05,-278.05 699.3,-219.74 647.7,-109.37 642.82,-98.91 635.23,-89.59 626.73,-81.53"/>
<text text-anchor="middle" x="759.2" y="-259.49" font-family="sans-serif" font-size="12.00"> &#160;&#160;&#160;&#160;&#160;&#160;&#160;&#160;&#160;&#160;&#160;&#160;&#160;&#160;&#160;&#160;&#160;&#160;&#160;&#160;&#160;&#160;&#160;&#160;&#160;&#160;&#160;&#160;&#160;&#160;&#160;&#160;&#160;&#160;&#160;&#160;&#160;&#160;&#160;</text>
<polygon fill="white" stroke="transparent" points="603.73,-71.53 603.73,-90.53 619.73,-90.53 619.73,-71.53 603.73,-71.53"/>
<polyline fill="none" stroke="black" points="619.73,-71.53 619.73,-90.53 "/>
<text text-anchor="start" x="606.73" y="-77.93" font-family="sans-serif" font-size="12.00">D</text>
<polygon fill="white" stroke="transparent" points="619.73,-71.53 619.73,-90.53 649.73,-90.53 649.73,-71.53 619.73,-71.53"/>
<polygon fill="none" stroke="black" points="619.73,-71.53 619.73,-90.53 649.73,-90.53 649.73,-71.53 619.73,-71.53"/>
<text text-anchor="start" x="622.73" y="-77.93" font-family="sans-serif" font-size="12.00">ACL</text>
<polygon fill="white" stroke="transparent" points="559.67,-437.67 559.67,-454.67 573.67,-454.67 573.67,-437.67 559.67,-437.67"/>
<text text-anchor="start" x="561.67" y="-443.07" font-family="sans-serif" font-size="12.00">U</text>
</g>
<!-- GestionVehiculos -->
<g id="node5" class="node">
<title>GestionVehiculos</title>
<polygon fill="none" stroke="black" stroke-width="2" points="219.68,-515.42 212.93,-517.15 206,-518.77 198.93,-520.28 191.74,-521.67 184.46,-522.92 177.12,-524.05 169.75,-525.03 162.37,-525.88 155,-526.57 147.68,-527.12 140.42,-527.52 133.25,-527.75 126.18,-527.84 119.25,-527.77 112.46,-527.54 105.84,-527.16 99.4,-526.62 93.16,-525.93 87.13,-525.1 81.32,-524.12 75.75,-522.99 70.42,-521.74 65.34,-520.35 60.52,-518.84 55.96,-517.21 51.66,-515.48 47.64,-513.63 43.9,-511.7 40.43,-509.67 37.23,-507.57 34.31,-505.39 31.67,-503.15 29.3,-500.86 27.2,-498.52 25.38,-496.15 23.82,-493.75 22.53,-491.32 21.5,-488.89 20.73,-486.46 20.23,-484.03 19.98,-481.61 19.99,-479.22 20.25,-476.85 20.76,-474.52 21.52,-472.23 22.54,-469.98 23.8,-467.79 25.3,-465.65 27.06,-463.58 29.06,-461.58 31.31,-459.64 33.8,-457.78 36.54,-456 39.52,-454.29 42.75,-452.67 46.22,-451.14 49.94,-449.69 53.9,-448.33 58.09,-447.05 62.52,-445.87 67.19,-444.77 72.08,-443.77 77.2,-442.86 82.53,-442.03 88.08,-441.3 93.83,-440.66 99.77,-440.11 105.89,-439.65 112.19,-439.27 118.64,-438.99 125.24,-438.8 131.97,-438.69 138.81,-438.68 145.74,-438.75 152.75,-438.91 159.82,-439.16 166.92,-439.49 174.03,-439.92 181.13,-440.43 188.19,-441.03 195.2,-441.71 202.12,-442.49 208.93,-443.35 215.61,-444.29 222.12,-445.33 228.45,-446.45 234.56,-447.66 240.44,-448.95 246.05,-450.32 251.37,-451.78 256.38,-453.32 261.06,-454.94 265.39,-456.64 269.34,-458.42 272.89,-460.27 276.04,-462.19 278.76,-464.17 281.05,-466.22 282.88,-468.33 284.26,-470.5 285.17,-472.71 285.61,-474.97 285.57,-477.27 285.06,-479.6 284.07,-481.96 282.62,-484.34 280.69,-486.74 278.32,-489.14 275.49,-491.53 272.23,-493.92 268.55,-496.29 264.47,-498.63 260,-500.94 255.16,-503.21 249.98,-505.42 244.47,-507.57 238.66,-509.66 232.58,-511.67 226.24,-513.59 219.68,-515.42"/>
<text text-anchor="middle" x="142.7" y="-476.36" font-family="sans-serif" font-size="16.00">GestionVehiculos</text>
</g>
<!-- GestionVehiculos&#45;&gt;GestionAlquileres -->
<g id="edge6" class="edge">
<title>GestionVehiculos&#45;&gt;GestionAlquileres</title>
<path fill="none" stroke="black" stroke-width="2" d="M134.83,-438.52C134.44,-425.67 136.4,-412.05 143.7,-401.32 154.86,-384.92 170.95,-372.65 188.66,-363.46"/>
<text text-anchor="middle" x="219.2" y="-404.72" font-family="sans-serif" font-size="12.00"> &#160;&#160;&#160;&#160;&#160;&#160;&#160;&#160;&#160;&#160;&#160;&#160;&#160;&#160;&#160;&#160;&#160;&#160;&#160;&#160;&#160;&#160;&#160;&#160;&#160;&#160;&#160;&#160;&#160;&#160;&#160;&#160;&#160;&#160;&#160;&#160;&#160;&#160;&#160;</text>
<polygon fill="white" stroke="transparent" points="181.66,-354.46 181.66,-371.46 195.66,-371.46 195.66,-354.46 181.66,-354.46"/>
<text text-anchor="start" x="183.66" y="-359.86" font-family="sans-serif" font-size="12.00">D</text>
<polygon fill="white" stroke="transparent" points="99.83,-428.52 99.83,-447.52 115.83,-447.52 115.83,-428.52 99.83,-428.52"/>
<polyline fill="none" stroke="black" points="115.83,-428.52 115.83,-447.52 "/>
<text text-anchor="start" x="102.83" y="-434.92" font-family="sans-serif" font-size="12.00">U</text>
<polygon fill="white" stroke="transparent" points="115.83,-428.52 115.83,-447.52 170.83,-447.52 170.83,-428.52 115.83,-428.52"/>
<polygon fill="none" stroke="black" points="115.83,-428.52 115.83,-447.52 170.83,-447.52 170.83,-428.52 115.83,-428.52"/>
<text text-anchor="start" x="118.83" y="-434.92" font-family="sans-serif" font-size="12.00">OHS, PL</text>
</g>
</g>
</svg>
