<svg width="2000px" height="1730px"
 viewBox="0.00 0.00 615.17 531.65" xmlns="http://www.w3.org/2000/svg" xmlns:xlink="http://www.w3.org/1999/xlink">
<g id="graph0" class="graph" transform="scale(1.0 1.0) rotate(0) translate(4 527.65)">
<title>ContextMapGraph</title>
<polygon fill="white" stroke="transparent" points="-4,4 -4,-527.65 611.17,-527.65 611.17,4 -4,4"/>
<!-- GestionAlquileres -->
<g id="node1" class="node">
<title>GestionAlquileres</title>
<polygon fill="none" stroke="black" stroke-width="2" points="418.39,-375.35 410.1,-374.57 401.96,-373.68 394.01,-372.69 386.29,-371.59 378.81,-370.39 371.62,-369.09 364.74,-367.7 358.2,-366.22 352.02,-364.66 346.23,-363.01 340.85,-361.3 335.88,-359.51 331.37,-357.66 327.3,-355.75 323.7,-353.79 320.58,-351.78 317.93,-349.73 315.77,-347.63 314.09,-345.51 312.9,-343.36 312.19,-341.18 311.95,-339 312.18,-336.8 312.87,-334.59 314,-332.39 315.56,-330.19 317.53,-328 319.9,-325.82 322.65,-323.67 325.76,-321.55 329.21,-319.46 332.98,-317.4 337.05,-315.38 341.39,-313.41 345.99,-311.49 350.81,-309.63 355.85,-307.83 361.07,-306.09 366.46,-304.42 371.99,-302.83 377.65,-301.31 383.42,-299.87 389.28,-298.52 395.2,-297.25 401.18,-296.08 407.2,-295 413.24,-294.02 419.3,-293.14 425.36,-292.37 431.41,-291.7 437.44,-291.14 443.44,-290.7 449.4,-290.36 455.32,-290.14 461.19,-290.03 467.01,-290.04 472.77,-290.17 478.47,-290.42 484.09,-290.78 489.65,-291.26 495.14,-291.86 500.54,-292.57 505.87,-293.4 511.11,-294.34 516.26,-295.39 521.32,-296.55 526.28,-297.82 531.13,-299.19 535.87,-300.66 540.5,-302.22 544.99,-303.88 549.36,-305.63 553.58,-307.46 557.64,-309.37 561.54,-311.35 565.27,-313.4 568.8,-315.51 572.13,-317.68 575.24,-319.9 578.12,-322.16 580.75,-324.45 583.12,-326.78 585.21,-329.13 587.01,-331.49 588.51,-333.87 589.68,-336.24 590.51,-338.61 591,-340.97 591.12,-343.31 590.86,-345.62 590.22,-347.89 589.18,-350.12 587.73,-352.31 585.88,-354.44 583.61,-356.51 580.91,-358.51 577.8,-360.43 574.26,-362.28 570.31,-364.04 565.94,-365.71 561.17,-367.29 556,-368.77 550.45,-370.14 544.52,-371.4 538.24,-372.56 531.62,-373.6 524.69,-374.52 517.47,-375.32 509.97,-376 502.24,-376.56 494.29,-376.99 486.16,-377.3 477.87,-377.49 469.46,-377.55 460.97,-377.49 452.42,-377.3 443.85,-376.99 435.3,-376.56 426.8,-376.01 418.39,-375.35"/>
<text text-anchor="middle" x="456.17" y="-329.64" font-family="sans-serif" font-size="16.00">GestionAlquileres</text>
</g>
<!-- Seguridad -->
<g id="node2" class="node">
<title>Seguridad</title>
<polygon fill="none" stroke="black" stroke-width="2" points="306.31,-51.88 305.71,-54.73 304.86,-57.54 303.78,-60.31 302.45,-63.03 300.89,-65.68 299.1,-68.25 297.08,-70.74 294.84,-73.14 292.38,-75.43 289.72,-77.61 286.86,-79.66 283.8,-81.59 280.56,-83.39 277.15,-85.05 273.57,-86.57 269.83,-87.94 265.95,-89.16 261.93,-90.23 257.79,-91.15 253.54,-91.91 249.18,-92.52 244.74,-92.98 240.22,-93.29 235.63,-93.45 230.99,-93.46 226.31,-93.33 221.6,-93.07 216.88,-92.67 212.15,-92.15 207.44,-91.5 202.75,-90.73 198.1,-89.86 193.49,-88.88 188.95,-87.81 184.48,-86.64 180.1,-85.38 175.81,-84.05 171.64,-82.65 167.58,-81.18 163.66,-79.64 159.88,-78.06 156.25,-76.42 152.79,-74.75 149.5,-73.03 146.39,-71.28 143.47,-69.5 140.74,-67.7 138.23,-65.87 135.92,-64.02 133.83,-62.16 131.97,-60.29 130.34,-58.41 128.94,-56.52 127.78,-54.62 126.87,-52.72 126.19,-50.82 125.77,-48.91 125.59,-47.01 125.66,-45.11 125.97,-43.21 126.54,-41.31 127.35,-39.42 128.4,-37.54 129.7,-35.66 131.23,-33.79 133,-31.94 134.99,-30.1 137.21,-28.28 139.65,-26.47 142.3,-24.69 145.15,-22.93 148.2,-21.2 151.43,-19.5 154.85,-17.84 158.43,-16.22 162.18,-14.65 166.07,-13.13 170.1,-11.67 174.26,-10.27 178.53,-8.93 182.91,-7.67 187.38,-6.49 191.93,-5.4 196.55,-4.4 201.22,-3.5 205.94,-2.71 210.68,-2.02 215.44,-1.45 220.2,-1.01 224.94,-0.69 229.67,-0.51 234.36,-0.46 238.99,-0.55 243.56,-0.79 248.06,-1.17 252.47,-1.7 256.78,-2.38 260.98,-3.22 265.05,-4.2 268.99,-5.34 272.78,-6.63 276.41,-8.06 279.88,-9.64 283.17,-11.35 286.28,-13.2 289.19,-15.19 291.9,-17.29 294.41,-19.51 296.69,-21.84 298.76,-24.27 300.6,-26.8 302.2,-29.4 303.57,-32.07 304.7,-34.81 305.59,-37.6 306.22,-40.42 306.62,-43.28 306.76,-46.15 306.66,-49.02 306.31,-51.88"/>
<text text-anchor="middle" x="216.17" y="-43.02" font-family="sans-serif" font-size="16.00">Seguridad</text>
</g>
<!-- GestionAlquileres&#45;&gt;Seguridad -->
<g id="edge1" class="edge">
<title>GestionAlquileres&#45;&gt;Seguridad</title>
<path fill="none" stroke="black" stroke-width="2" d="M450.12,-290.04C441.06,-241.14 419.54,-161.14 371.17,-111.64 351.74,-91.76 325.24,-77.83 299.64,-68.18"/>
<text text-anchor="middle" x="512.67" y="-188.29" font-family="sans-serif" font-size="12.00"> &#160;&#160;&#160;&#160;&#160;&#160;&#160;&#160;&#160;&#160;&#160;&#160;&#160;&#160;&#160;&#160;&#160;&#160;&#160;&#160;&#160;&#160;&#160;&#160;&#160;&#160;&#160;&#160;&#160;&#160;&#160;&#160;&#160;&#160;&#160;&#160;&#160;&#160;&#160;</text>
<polygon fill="white" stroke="transparent" points="276.64,-58.18 276.64,-77.18 292.64,-77.18 292.64,-58.18 276.64,-58.18"/>
<polyline fill="none" stroke="black" points="292.64,-58.18 292.64,-77.18 "/>
<text text-anchor="start" x="279.64" y="-64.58" font-family="sans-serif" font-size="12.00">D</text>
<polygon fill="white" stroke="transparent" points="292.64,-58.18 292.64,-77.18 322.64,-77.18 322.64,-58.18 292.64,-58.18"/>
<polygon fill="none" stroke="black" points="292.64,-58.18 292.64,-77.18 322.64,-77.18 322.64,-58.18 292.64,-58.18"/>
<text text-anchor="start" x="295.64" y="-64.58" font-family="sans-serif" font-size="12.00">ACL</text>
<polygon fill="white" stroke="transparent" points="443.12,-281.04 443.12,-298.04 457.12,-298.04 457.12,-281.04 443.12,-281.04"/>
<text text-anchor="start" x="445.12" y="-286.44" font-family="sans-serif" font-size="12.00">U</text>
</g>
<!-- GestionPagos -->
<g id="node3" class="node">
<title>GestionPagos</title>
<polygon fill="none" stroke="black" stroke-width="2" points="298.53,-219.86 293.99,-222.05 289.26,-224.16 284.34,-226.16 279.25,-228.05 274.03,-229.82 268.68,-231.47 263.22,-232.99 257.68,-234.37 252.07,-235.61 246.41,-236.69 240.72,-237.62 235.01,-238.4 229.3,-239.02 223.61,-239.47 217.96,-239.76 212.35,-239.89 206.81,-239.86 201.34,-239.66 195.96,-239.31 190.69,-238.79 185.52,-238.12 180.48,-237.31 175.57,-236.34 170.8,-235.24 166.18,-234 161.71,-232.63 157.41,-231.15 153.28,-229.55 149.32,-227.84 145.54,-226.03 141.95,-224.14 138.55,-222.16 135.34,-220.11 132.33,-218 129.52,-215.82 126.91,-213.61 124.51,-211.35 122.32,-209.06 120.33,-206.75 118.57,-204.43 117.02,-202.1 115.69,-199.77 114.58,-197.44 113.7,-195.14 113.04,-192.85 112.61,-190.59 112.42,-188.36 112.45,-186.17 112.73,-184.02 113.24,-181.92 113.99,-179.87 114.98,-177.87 116.22,-175.93 117.7,-174.04 119.43,-172.22 121.4,-170.47 123.62,-168.78 126.08,-167.15 128.79,-165.59 131.73,-164.11 134.92,-162.69 138.35,-161.34 142.01,-160.07 145.89,-158.86 150,-157.73 154.33,-156.67 158.86,-155.68 163.59,-154.77 168.51,-153.93 173.61,-153.17 178.88,-152.48 184.3,-151.87 189.86,-151.34 195.55,-150.88 201.35,-150.51 207.24,-150.21 213.21,-150 219.24,-149.88 225.31,-149.84 231.4,-149.88 237.49,-150.02 243.55,-150.25 249.58,-150.57 255.55,-150.99 261.43,-151.5 267.21,-152.11 272.86,-152.82 278.37,-153.63 283.7,-154.54 288.85,-155.56 293.79,-156.68 298.51,-157.9 302.98,-159.23 307.19,-160.65 311.11,-162.18 314.75,-163.81 318.07,-165.54 321.08,-167.36 323.75,-169.27 326.08,-171.27 328.05,-173.36 329.67,-175.52 330.92,-177.76 331.81,-180.07 332.32,-182.44 332.46,-184.87 332.23,-187.34 331.63,-189.85 330.67,-192.4 329.34,-194.97 327.67,-197.55 325.65,-200.14 323.3,-202.72 320.62,-205.29 317.63,-207.84 314.35,-210.35 310.78,-212.82 306.94,-215.23 302.86,-217.58 298.53,-219.86"/>
<text text-anchor="middle" x="216.17" y="-187.59" font-family="sans-serif" font-size="16.00">GestionPagos</text>
</g>
<!-- GestionAlquileres&#45;&gt;GestionPagos -->
<g id="edge2" class="edge">
<title>GestionAlquileres&#45;&gt;GestionPagos</title>
<path fill="none" stroke="black" stroke-width="2" d="M351.01,-309.5C324,-300.43 296.12,-288.01 273.17,-271.14 261.06,-262.25 250.48,-250.02 241.84,-237.85"/>
<text text-anchor="middle" x="348.67" y="-261.54" font-family="sans-serif" font-size="12.00"> &#160;&#160;&#160;&#160;&#160;&#160;&#160;&#160;&#160;&#160;&#160;&#160;&#160;&#160;&#160;&#160;&#160;&#160;&#160;&#160;&#160;&#160;&#160;&#160;&#160;&#160;&#160;&#160;&#160;&#160;&#160;&#160;&#160;&#160;&#160;&#160;&#160;&#160;&#160;</text>
<polygon fill="white" stroke="transparent" points="218.84,-227.85 218.84,-246.85 234.84,-246.85 234.84,-227.85 218.84,-227.85"/>
<polyline fill="none" stroke="black" points="234.84,-227.85 234.84,-246.85 "/>
<text text-anchor="start" x="221.84" y="-234.25" font-family="sans-serif" font-size="12.00">D</text>
<polygon fill="white" stroke="transparent" points="234.84,-227.85 234.84,-246.85 264.84,-246.85 264.84,-227.85 234.84,-227.85"/>
<polygon fill="none" stroke="black" points="234.84,-227.85 234.84,-246.85 264.84,-246.85 264.84,-227.85 234.84,-227.85"/>
<text text-anchor="start" x="237.84" y="-234.25" font-family="sans-serif" font-size="12.00">ACL</text>
<polygon fill="white" stroke="transparent" points="344.01,-300.5 344.01,-317.5 358.01,-317.5 358.01,-300.5 344.01,-300.5"/>
<text text-anchor="start" x="346.01" y="-305.9" font-family="sans-serif" font-size="12.00">U</text>
</g>
<!-- GestionPagos&#45;&gt;Seguridad -->
<g id="edge3" class="edge">
<title>GestionPagos&#45;&gt;Seguridad</title>
<path fill="none" stroke="black" stroke-width="2" d="M216.17,-149.92C216.17,-132.05 216.17,-110.99 216.17,-92.65"/>
<text text-anchor="middle" x="291.67" y="-115.04" font-family="sans-serif" font-size="12.00"> &#160;&#160;&#160;&#160;&#160;&#160;&#160;&#160;&#160;&#160;&#160;&#160;&#160;&#160;&#160;&#160;&#160;&#160;&#160;&#160;&#160;&#160;&#160;&#160;&#160;&#160;&#160;&#160;&#160;&#160;&#160;&#160;&#160;&#160;&#160;&#160;&#160;&#160;&#160;</text>
<polygon fill="white" stroke="transparent" points="193.17,-82.65 193.17,-101.65 209.17,-101.65 209.17,-82.65 193.17,-82.65"/>
<polyline fill="none" stroke="black" points="209.17,-82.65 209.17,-101.65 "/>
<text text-anchor="start" x="196.17" y="-89.05" font-family="sans-serif" font-size="12.00">D</text>
<polygon fill="white" stroke="transparent" points="209.17,-82.65 209.17,-101.65 239.17,-101.65 239.17,-82.65 209.17,-82.65"/>
<polygon fill="none" stroke="black" points="209.17,-82.65 209.17,-101.65 239.17,-101.65 239.17,-82.65 209.17,-82.65"/>
<text text-anchor="start" x="212.17" y="-89.05" font-family="sans-serif" font-size="12.00">ACL</text>
<polygon fill="white" stroke="transparent" points="209.17,-140.92 209.17,-157.92 223.17,-157.92 223.17,-140.92 209.17,-140.92"/>
<text text-anchor="start" x="211.17" y="-146.32" font-family="sans-serif" font-size="12.00">U</text>
</g>
<!-- GestionClientes -->
<g id="node4" class="node">
<title>GestionClientes</title>
<polygon fill="none" stroke="black" stroke-width="2" points="68,-440.74 74.13,-438.92 80.44,-437.21 86.88,-435.62 93.45,-434.14 100.11,-432.8 106.84,-431.58 113.62,-430.51 120.42,-429.57 127.22,-428.79 133.99,-428.15 140.72,-427.67 147.39,-427.35 153.96,-427.18 160.43,-427.17 166.78,-427.32 172.99,-427.62 179.04,-428.09 184.93,-428.7 190.63,-429.47 196.14,-430.38 201.44,-431.44 206.53,-432.64 211.4,-433.97 216.05,-435.43 220.45,-437.01 224.62,-438.7 228.55,-440.5 232.23,-442.4 235.66,-444.39 238.84,-446.46 241.77,-448.61 244.45,-450.82 246.88,-453.1 249.06,-455.42 250.99,-457.78 252.68,-460.17 254.11,-462.58 255.31,-465.01 256.25,-467.44 256.96,-469.87 257.42,-472.29 257.65,-474.69 257.64,-477.07 257.38,-479.42 256.89,-481.73 256.17,-483.99 255.2,-486.2 254,-488.36 252.57,-490.46 250.9,-492.5 248.99,-494.46 246.84,-496.36 244.46,-498.18 241.85,-499.92 238.99,-501.59 235.9,-503.17 232.58,-504.67 229.02,-506.08 225.24,-507.41 221.22,-508.65 216.98,-509.8 212.51,-510.87 207.83,-511.84 202.94,-512.73 197.84,-513.53 192.54,-514.24 187.05,-514.87 181.39,-515.4 175.56,-515.85 169.57,-516.21 163.44,-516.48 157.18,-516.66 150.8,-516.76 144.33,-516.77 137.78,-516.69 131.17,-516.53 124.52,-516.27 117.85,-515.93 111.18,-515.5 104.54,-514.99 97.94,-514.38 91.41,-513.69 84.98,-512.91 78.67,-512.03 72.49,-511.07 66.49,-510.02 60.67,-508.89 55.07,-507.66 49.71,-506.35 44.61,-504.95 39.79,-503.46 35.27,-501.89 31.07,-500.24 27.22,-498.5 23.72,-496.69 20.6,-494.8 17.87,-492.84 15.55,-490.81 13.63,-488.72 12.14,-486.56 11.08,-484.35 10.45,-482.09 10.27,-479.78 10.52,-477.44 11.21,-475.06 12.34,-472.65 13.9,-470.23 15.88,-467.8 18.28,-465.36 21.09,-462.93 24.29,-460.51 27.87,-458.11 31.82,-455.74 36.11,-453.41 40.73,-451.13 45.65,-448.9 50.86,-446.74 56.34,-444.65 62.06,-442.65 68,-440.74"/>
<text text-anchor="middle" x="143.17" y="-471.4" font-family="sans-serif" font-size="16.00">GestionClientes</text>
</g>
<!-- GestionClientes&#45;&gt;GestionAlquileres -->
<g id="edge4" class="edge">
<title>GestionClientes&#45;&gt;GestionAlquileres</title>
<path fill="none" stroke="black" stroke-width="2" d="M217.3,-435.78C243.56,-422.6 273.47,-408.08 301.17,-395.75 322.32,-386.33 345.38,-376.82 367.11,-368.18"/>
<text text-anchor="middle" x="376.67" y="-399.15" font-family="sans-serif" font-size="12.00"> &#160;&#160;&#160;&#160;&#160;&#160;&#160;&#160;&#160;&#160;&#160;&#160;&#160;&#160;&#160;&#160;&#160;&#160;&#160;&#160;&#160;&#160;&#160;&#160;&#160;&#160;&#160;&#160;&#160;&#160;&#160;&#160;&#160;&#160;&#160;&#160;&#160;&#160;&#160;</text>
<polygon fill="white" stroke="transparent" points="360.11,-359.18 360.11,-376.18 374.11,-376.18 374.11,-359.18 360.11,-359.18"/>
<text text-anchor="start" x="362.11" y="-364.58" font-family="sans-serif" font-size="12.00">D</text>
<polygon fill="white" stroke="transparent" points="193.3,-425.78 193.3,-444.78 209.3,-444.78 209.3,-425.78 193.3,-425.78"/>
<polyline fill="none" stroke="black" points="209.3,-425.78 209.3,-444.78 "/>
<text text-anchor="start" x="196.3" y="-432.18" font-family="sans-serif" font-size="12.00">U</text>
<polygon fill="white" stroke="transparent" points="209.3,-425.78 209.3,-444.78 242.3,-444.78 242.3,-425.78 209.3,-425.78"/>
<polygon fill="none" stroke="black" points="209.3,-425.78 209.3,-444.78 242.3,-444.78 242.3,-425.78 209.3,-425.78"/>
<text text-anchor="start" x="212.3" y="-432.18" font-family="sans-serif" font-size="12.00">OHS</text>
</g>
<!-- GestionClientes&#45;&gt;Seguridad -->
<g id="edge6" class="edge">
<title>GestionClientes&#45;&gt;Seguridad</title>
<path fill="none" stroke="black" stroke-width="2" d="M90.5,-434.74C42.64,-393.66 -17.31,-325.95 5.17,-258.14 31.61,-178.36 109.5,-115.12 162.87,-79.57"/>
<text text-anchor="middle" x="80.67" y="-261.54" font-family="sans-serif" font-size="12.00"> &#160;&#160;&#160;&#160;&#160;&#160;&#160;&#160;&#160;&#160;&#160;&#160;&#160;&#160;&#160;&#160;&#160;&#160;&#160;&#160;&#160;&#160;&#160;&#160;&#160;&#160;&#160;&#160;&#160;&#160;&#160;&#160;&#160;&#160;&#160;&#160;&#160;&#160;&#160;</text>
<polygon fill="white" stroke="transparent" points="139.87,-69.57 139.87,-88.57 155.87,-88.57 155.87,-69.57 139.87,-69.57"/>
<polyline fill="none" stroke="black" points="155.87,-69.57 155.87,-88.57 "/>
<text text-anchor="start" x="142.87" y="-75.97" font-family="sans-serif" font-size="12.00">D</text>
<polygon fill="white" stroke="transparent" points="155.87,-69.57 155.87,-88.57 185.87,-88.57 185.87,-69.57 155.87,-69.57"/>
<polygon fill="none" stroke="black" points="155.87,-69.57 155.87,-88.57 185.87,-88.57 185.87,-69.57 155.87,-69.57"/>
<text text-anchor="start" x="158.87" y="-75.97" font-family="sans-serif" font-size="12.00">ACL</text>
<polygon fill="white" stroke="transparent" points="83.5,-425.74 83.5,-442.74 97.5,-442.74 97.5,-425.74 83.5,-425.74"/>
<text text-anchor="start" x="85.5" y="-431.14" font-family="sans-serif" font-size="12.00">U</text>
</g>
<!-- GestionClientes&#45;&gt;GestionPagos -->
<g id="edge5" class="edge">
<title>GestionClientes&#45;&gt;GestionPagos</title>
<path fill="none" stroke="black" stroke-width="2" d="M138.73,-427.72C136.65,-389.53 137.3,-334.53 152.17,-289.14 158.12,-270.96 168.47,-252.95 179.13,-237.48"/>
<text text-anchor="middle" x="227.67" y="-330.34" font-family="sans-serif" font-size="12.00"> &#160;&#160;&#160;&#160;&#160;&#160;&#160;&#160;&#160;&#160;&#160;&#160;&#160;&#160;&#160;&#160;&#160;&#160;&#160;&#160;&#160;&#160;&#160;&#160;&#160;&#160;&#160;&#160;&#160;&#160;&#160;&#160;&#160;&#160;&#160;&#160;&#160;&#160;&#160;</text>
<polygon fill="white" stroke="transparent" points="156.13,-227.48 156.13,-246.48 172.13,-246.48 172.13,-227.48 156.13,-227.48"/>
<polyline fill="none" stroke="black" points="172.13,-227.48 172.13,-246.48 "/>
<text text-anchor="start" x="159.13" y="-233.88" font-family="sans-serif" font-size="12.00">D</text>
<polygon fill="white" stroke="transparent" points="172.13,-227.48 172.13,-246.48 202.13,-246.48 202.13,-227.48 172.13,-227.48"/>
<polygon fill="none" stroke="black" points="172.13,-227.48 172.13,-246.48 202.13,-246.48 202.13,-227.48 172.13,-227.48"/>
<text text-anchor="start" x="175.13" y="-233.88" font-family="sans-serif" font-size="12.00">ACL</text>
<polygon fill="white" stroke="transparent" points="131.73,-418.72 131.73,-435.72 145.73,-435.72 145.73,-418.72 131.73,-418.72"/>
<text text-anchor="start" x="133.73" y="-424.12" font-family="sans-serif" font-size="12.00">U</text>
</g>
<!-- GestionVehiculos -->
<g id="node5" class="node">
<title>GestionVehiculos</title>
<polygon fill="none" stroke="black" stroke-width="2" points="583.83,-467.31 585.48,-470.12 586.77,-472.94 587.68,-475.75 588.22,-478.54 588.39,-481.3 588.17,-484.03 587.56,-486.7 586.58,-489.31 585.2,-491.86 583.45,-494.32 581.32,-496.7 578.82,-498.98 575.95,-501.17 572.72,-503.24 569.14,-505.2 565.22,-507.05 560.97,-508.77 556.4,-510.36 551.53,-511.82 546.37,-513.16 540.95,-514.36 535.26,-515.43 529.35,-516.36 523.21,-517.16 516.88,-517.83 510.36,-518.37 503.7,-518.78 496.89,-519.07 489.98,-519.23 482.97,-519.28 475.89,-519.21 468.77,-519.03 461.63,-518.74 454.48,-518.35 447.35,-517.86 440.27,-517.28 433.26,-516.61 426.33,-515.85 419.51,-515.02 412.82,-514.1 406.27,-513.12 399.89,-512.06 393.7,-510.94 387.71,-509.76 381.94,-508.52 376.4,-507.23 371.11,-505.88 366.09,-504.49 361.33,-503.04 356.87,-501.55 352.7,-500.02 348.84,-498.45 345.29,-496.83 342.06,-495.18 339.15,-493.48 336.58,-491.75 334.35,-489.99 332.45,-488.19 330.9,-486.35 329.68,-484.49 328.81,-482.59 328.28,-480.66 328.09,-478.71 328.23,-476.72 328.71,-474.72 329.52,-472.69 330.66,-470.64 332.11,-468.58 333.88,-466.5 335.95,-464.42 338.33,-462.33 341,-460.24 343.95,-458.15 347.18,-456.08 350.68,-454.02 354.44,-451.98 358.44,-449.97 362.68,-448 367.16,-446.07 371.85,-444.18 376.74,-442.36 381.84,-440.59 387.11,-438.9 392.56,-437.29 398.17,-435.77 403.93,-434.34 409.82,-433.01 415.84,-431.79 421.96,-430.69 428.18,-429.72 434.48,-428.87 440.85,-428.16 447.27,-427.6 453.73,-427.18 460.21,-426.91 466.7,-426.8 473.18,-426.84 479.65,-427.05 486.07,-427.42 492.44,-427.95 498.74,-428.65 504.95,-429.51 511.06,-430.53 517.05,-431.71 522.91,-433.05 528.61,-434.53 534.14,-436.17 539.49,-437.95 544.64,-439.86 549.57,-441.9 554.27,-444.06 558.73,-446.33 562.92,-448.7 566.84,-451.16 570.46,-453.71 573.79,-456.33 576.8,-459.01 579.48,-461.74 581.83,-464.51 583.83,-467.31"/>
<text text-anchor="middle" x="456.17" y="-471.4" font-family="sans-serif" font-size="16.00">GestionVehiculos</text>
</g>
<!-- GestionVehiculos&#45;&gt;GestionAlquileres -->
<g id="edge7" class="edge">
<title>GestionVehiculos&#45;&gt;GestionAlquileres</title>
<path fill="none" stroke="black" stroke-width="2" d="M456.17,-426.88C456.17,-410.89 456.17,-393.13 456.17,-377.48"/>
<text text-anchor="middle" x="531.67" y="-399.15" font-family="sans-serif" font-size="12.00"> &#160;&#160;&#160;&#160;&#160;&#160;&#160;&#160;&#160;&#160;&#160;&#160;&#160;&#160;&#160;&#160;&#160;&#160;&#160;&#160;&#160;&#160;&#160;&#160;&#160;&#160;&#160;&#160;&#160;&#160;&#160;&#160;&#160;&#160;&#160;&#160;&#160;&#160;&#160;</text>
<polygon fill="white" stroke="transparent" points="449.17,-368.48 449.17,-385.48 463.17,-385.48 463.17,-368.48 449.17,-368.48"/>
<text text-anchor="start" x="451.17" y="-373.88" font-family="sans-serif" font-size="12.00">D</text>
<polygon fill="white" stroke="transparent" points="421.17,-416.88 421.17,-435.88 437.17,-435.88 437.17,-416.88 421.17,-416.88"/>
<polyline fill="none" stroke="black" points="437.17,-416.88 437.17,-435.88 "/>
<text text-anchor="start" x="424.17" y="-423.28" font-family="sans-serif" font-size="12.00">U</text>
<polygon fill="white" stroke="transparent" points="437.17,-416.88 437.17,-435.88 492.17,-435.88 492.17,-416.88 437.17,-416.88"/>
<polygon fill="none" stroke="black" points="437.17,-416.88 437.17,-435.88 492.17,-435.88 492.17,-416.88 437.17,-416.88"/>
<text text-anchor="start" x="440.17" y="-423.28" font-family="sans-serif" font-size="12.00">OHS, PL</text>
</g>
</g>
</svg>
